<svg xmlns="http://www.w3.org/2000/svg" viewBox="0 0 486.4683 111.8223"><defs><style>.a{fill:#fff;}</style></defs><title>spa</title><path class="a" d="M216.9184,35.3634l.0562,18.6831h-3.8828l-.0562-40.7427h12.0991c9.1724,0,13.2241,3.6577,13.168,11.1421,0,7.2031-4.0518,10.9175-12.1553,10.9175Zm.0562-19.5273-.0562,17.3325h7.4844c6.5845,0,9.96-2.5884,9.9043-8.7788,0-6.021-3.4888-8.5537-10.1294-8.5537Z" transform="translate(-14.7058 -12.4596)"/><path class="a" d="M244.3754,54.0465l-.0562-40.7427h23.0723l.0566,2.814h-19.19l-.0562,15.1377h13.7871l.0566,2.8135H248.2582l-.0562,16.9385h20.09l.0566,3.0391H244.3754Z" transform="translate(-14.7058 -12.4596)"/><path class="a" d="M286.8027,35.5324h-9.229l.0562,18.5142h-3.8267l-.0562-40.7427h11.5361c10.4111,0,14.8008,3.4326,14.8564,10.9736,0,5.0645-3.376,9.0039-9.8477,10.0728l10.41,19.6963H296.538ZM277.63,16.4552,277.5737,33h7.7656c6.9224,0,10.58-2.87,10.6362-8.4971,0-6.1338-3.6582-8.0474-10.5234-8.0474Z" transform="translate(-14.7058 -12.4596)"/><path class="a" d="M333.3915,54.609c-9.0039,0-15.6445-5.0083-15.7012-20.9336,0-13.7876,5.7969-21.2158,15.87-21.2158,7.4844,0,12.1553,3.6582,13.4492,10.9175l-3.5449.8442c-1.126-5.1211-4.165-8.8916-10.2988-8.7793-7.4844.0566-11.1426,7.3721-11.1982,18.29,0,13.0557,4.6709,17.895,11.5361,17.8389,6.3594,0,9.3418-3.6016,10.4668-8.7227l3.5459.8442c-1.8008,7.3721-6.7529,10.917-14.1816,10.917Z" transform="translate(-14.7058 -12.4596)"/><path class="a" d="M371.8788,42.3415H355.5595l-3.1514,11.7051h-3.8828l11.7607-40.7427a15.1394,15.1394,0,0,1,4.2207.394,3.9189,3.9189,0,0,1,3.0957,2.5322c1.1816,3.6577,9.51,31.3447,11.4795,37.8164h-3.9951Zm-6.415-24.4795c-.2812-1.2939-1.6318-1.4629-2.7578-1.4629L356.46,39.5841h14.35S365.4638,18.2,365.4072,17.862Z" transform="translate(-14.7058 -12.4596)"/><path class="a" d="M387.3505,35.3634l.0566,18.6831h-3.8828l-.0566-40.7427h12.0986c9.1729,0,13.2246,3.6577,13.1689,11.1421,0,7.2031-4.0527,10.9175-12.1562,10.9175Zm.0566-19.5273-.0566,17.3325h7.4844c6.584,0,9.9609-2.5884,9.9043-8.7788,0-6.021-3.4893-8.5537-10.1289-8.5537Z" transform="translate(-14.7058 -12.4596)"/><path class="a" d="M414.8075,54.0465l-.0557-40.7427h23.0723l.0566,2.814H418.6913l-.0566,15.1377h13.7871l.0566,2.8135H418.6913l-.0566,16.9385h20.09l.0566,3.0391H414.8075Z" transform="translate(-14.7058 -12.4596)"/><path class="a" d="M444.2353,54.0465,444.18,13.3039h3.9395l-.0566,37.9292h17.8955l.0557,2.8135H444.2353Z" transform="translate(-14.7058 -12.4596)"/><path class="a" d="M470.3993,54.0465l-.0557-40.7427h3.9395l-.0566,37.9292H492.122l.0557,2.8135H470.3993Z" transform="translate(-14.7058 -12.4596)"/><path class="a" d="M496.7324,54.0465l-.0557-40.7988h3.9395l.0557,40.7988h-3.9395Z" transform="translate(-14.7058 -12.4596)"/><path class="a" d="M78.3253,122.7647v-3.0058H89.71V20.4236H78.42V17.2175h29.0173V119.6736h11.6407v3.0911Z" transform="translate(-14.7058 -12.4596)"/><path class="a" d="M226.4917,119.78h9.7049c.0459,1.0423.0862,1.955.1331,3.0191H198.236l-.3154-2.8674h10.1968c-.754-1.8848-1.32-3.3239-1.9039-4.7553q-15.7363-38.5621-31.449-77.1339a4.9838,4.9838,0,0,1-.4826-3.1122c2.4939-7.0721,5.1573-14.0844,8.0679-21.92Z" transform="translate(-14.7058 -12.4596)"/><path class="a" d="M121.0486,20.12l.1241-2.7645c15.204-1.2655,30.0949,12.2441,31.0786,28.0056C153.41,63.9285,140.2586,78.4315,121.243,79.22l-.2377-3.0687c7.3856-.68,11.7243-4.827,13.7151-11.6293a10.0875,10.0875,0,0,0,.4724-2.694c.077-8.6555.4728-17.3294.0517-25.9626C134.7721,26.18,130.8,22.1007,121.0486,20.12Z" transform="translate(-14.7058 -12.4596)"/><path class="a" d="M167.077,54.6772c2.0432,2.6618,1.8064,5.0283.7983,7.7322-6.8222,18.2979-13.5046,36.6478-20.23,54.9818-.2419.66-.456,1.3293-.802,2.3423h8.169v3.0313H132.8548V119.89h9.8719Z" transform="translate(-14.7058 -12.4596)"/><path class="a" d="M44.9157,124.282c-1.29-3.2528.69-3.7183,2.7671-4.3512,12.7141-3.8741,18.9375-16.1863,14.0818-27.8552-2.1292-5.1167-6.1234-8.6241-10.7338-11.3533C44.5547,76.8885,37.83,73.4742,31.3667,69.6193c-7.759-4.6281-13.5952-10.7912-15.8657-19.9829C11.6667,34.1134,22.118,18.13,37.84,15.9465a20.135,20.135,0,0,1,2.717-.0158c.7493,2.19.0748,2.9587-2.1424,3.5857C31.677,21.4216,26.498,25.2957,24.7514,32.5037c-1.6828,6.9449,1.1291,12.37,6.291,16.7479a45.7577,45.7577,0,0,0,6.9842,4.9c4.3349,2.4568,8.8837,4.5353,13.2271,6.978a164.2,164.2,0,0,1,14.641,8.7741c17.9714,12.7385,13.9309,35.4861.4246,46.12A39.8237,39.8237,0,0,1,44.9157,124.282Z" transform="translate(-14.7058 -12.4596)"/><path class="a" d="M373.1119,108.52a1.9769,1.9769,0,0,1-.8445-.1646,1.6175,1.6175,0,0,1-.59-.461,1.9362,1.9362,0,0,1-.3484-.7,3.5,3.5,0,0,1-.0025-1.7527,1.93,1.93,0,0,1,.3463-.7011,1.6188,1.6188,0,0,1,.5887-.4631,1.9789,1.9789,0,0,1,.8441-.1667,2,2,0,0,1,.8445.1642,1.5806,1.5806,0,0,1,.5933.4613,2.0129,2.0129,0,0,1,.3484.7,3.4021,3.4021,0,0,1,.0025,1.752,2.0164,2.0164,0,0,1-.3463.7018,1.5834,1.5834,0,0,1-.5919.4628A2.0073,2.0073,0,0,1,373.1119,108.52Zm-.0005-.3569a1.52,1.52,0,0,0,.6434-.1282,1.2031,1.2031,0,0,0,.4551-.3673,1.6215,1.6215,0,0,0,.27-.5832,3.3775,3.3775,0,0,0-.0021-1.5425,1.6288,1.6288,0,0,0-.2716-.5824,1.2016,1.2016,0,0,0-.4562-.3659,1.5066,1.5066,0,0,0-.6437-.1261,1.5242,1.5242,0,0,0-.6466.1282,1.1884,1.1884,0,0,0-.4583.3669,1.6231,1.6231,0,0,0-.27.5835,3.3744,3.3744,0,0,0,.0021,1.5418,1.6219,1.6219,0,0,0,.2716.5828,1.1935,1.1935,0,0,0,.4594.3655A1.5326,1.5326,0,0,0,373.1114,108.1635Z" transform="translate(-14.7058 -12.4596)"/><path class="a" d="M379.1352,105.4212a1.2,1.2,0,0,1-.2761.7965,1.4322,1.4322,0,0,1-.7543.46l1.0541,1.7762-.4843.0007-1.0222-1.732-1,.0014.0027,1.7334-.4332.0007-.0064-4.2948,1.5165-.0021a1.66,1.66,0,0,1,.5928.0976,1.2959,1.2959,0,0,1,.44.2672,1.1522,1.1522,0,0,1,.2747.3976A1.283,1.283,0,0,1,379.1352,105.4212Zm-.44.0007a.8137.8137,0,0,0-.2463-.6241,1.011,1.011,0,0,0-.7171-.2287l-1.0833.0018.0025,1.7523,1.045-.0014a1.0529,1.0529,0,0,0,.7324-.2437A.84.84,0,0,0,378.6956,105.4219Z" transform="translate(-14.7058 -12.4596)"/><path class="a" d="M382.2177,104.4921a2.0106,2.0106,0,0,0-.6879.1126,1.3588,1.3588,0,0,0-.5221.3384,1.5256,1.5256,0,0,0-.3338.571,2.5064,2.5064,0,0,0-.1167.8094,2.556,2.556,0,0,0,.1.7328,1.76,1.76,0,0,0,.278.5664,1.2558,1.2558,0,0,0,.4307.3659,1.1766,1.1766,0,0,0,.5513.13,1.3358,1.3358,0,0,0,.44-.0709.966.966,0,0,0,.5951-.571,1.3383,1.3383,0,0,0,.0851-.5l-.0009-.4973-.892.0014-.0005-.3762,1.3063-.0018.0036,2.3451-.3313,0-.0965-.6181a1.2925,1.2925,0,0,1-.4294.4816,1.2242,1.2242,0,0,1-.71.1956,1.7084,1.7084,0,0,1-.7424-.155,1.5577,1.5577,0,0,1-.5552-.4389,2.0155,2.0155,0,0,1-.348-.6875,3.1323,3.1323,0,0,1-.1225-.9016,2.8732,2.8732,0,0,1,.142-.943,1.9114,1.9114,0,0,1,.41-.6986,1.762,1.762,0,0,1,.6558-.4343,2.43,2.43,0,0,1,.8792-.151,2.4975,2.4975,0,0,1,.583.06,2.9476,2.9476,0,0,1,.4749.1553c-.0167.0595-.036.119-.057.1781s-.04.119-.0572.1788A2.2234,2.2234,0,0,0,382.2177,104.4921Z" transform="translate(-14.7058 -12.4596)"/><path class="a" d="M387.23,107.25l-1.8925.0025-.4316,1.1927-.446.0007,1.5929-4.2976.4524,0q.4032,1.0826.803,2.1463t.803,2.146l-.4462.0007Zm-1.7464-.3862,1.5993-.0025-.4927-1.3181c-.047-.1489-.0971-.3078-.15-.4777s-.1037-.3267-.1505-.4713q-.0826.2105-.1649.4717t-.1523.4781Z" transform="translate(-14.7058 -12.4596)"/><path class="a" d="M391.4927,107.0655q.1344.2234.2428.4236t.1726.3281l.0447-.0132q-.02-.2228-.0294-.4392t-.01-.4845l-.0041-2.74.44-.0007.0064,4.2948-.4843.0007-1.8268-2.9219a3.2829,3.2829,0,0,1-.2107-.3534q-.109-.2068-.1854-.3662v.0128a.0189.0189,0,0,0-.0062-.0128.0162.0162,0,0,1-.0066-.0125h-.0509q.02.2228.0294.4364t.01.4809l.0041,2.74-.44.0007-.0064-4.2948.4843-.0007Z" transform="translate(-14.7058 -12.4596)"/><path class="a" d="M394.26,108.4314l-.44.0007-.0064-4.2948.44-.0007Z" transform="translate(-14.7058 -12.4596)"/><path class="a" d="M397.5421,104.4636a1.4983,1.4983,0,0,0-1.1749.4731,2.3491,2.3491,0,0,0-.0025,2.6825,1.4869,1.4869,0,0,0,1.1763.47,2.5259,2.5259,0,0,0,.4939-.0484,2.1475,2.1475,0,0,0,.4424-.1379l.1088.3569a2.3278,2.3278,0,0,1-.4807.166,2.5591,2.5591,0,0,1-.57.0584,2.3225,2.3225,0,0,1-.9018-.1578,1.6726,1.6726,0,0,1-.6282-.4453,1.8448,1.8448,0,0,1-.3707-.6939,3.17,3.17,0,0,1-.1224-.9045,2.8434,2.8434,0,0,1,.1325-.8924,1.9491,1.9491,0,0,1,.3908-.6986,1.7856,1.7856,0,0,1,.6334-.4531,2.1654,2.1654,0,0,1,.8664-.1639,2.6653,2.6653,0,0,1,.5543.05,2.2322,2.2322,0,0,1,.4464.1461c-.0169.06-.0349.119-.0538.1788s-.0372.119-.0541.1785A2.15,2.15,0,0,0,397.5421,104.4636Z" transform="translate(-14.7058 -12.4596)"/><path class="a" d="M403.5956,104.4543a1.5,1.5,0,0,0-1.1749.4731,2.35,2.35,0,0,0-.0025,2.6828,1.4881,1.4881,0,0,0,1.1763.47,2.5258,2.5258,0,0,0,.4939-.0484,2.1691,2.1691,0,0,0,.4424-.1375l.1088.3562a2.33,2.33,0,0,1-.4807.1667,2.5814,2.5814,0,0,1-.57.0581,2.3291,2.3291,0,0,1-.9018-.1578,1.6765,1.6765,0,0,1-.6282-.4453,1.8448,1.8448,0,0,1-.3707-.6939,3.172,3.172,0,0,1-.1224-.9048,2.8412,2.8412,0,0,1,.1325-.892,1.9461,1.9461,0,0,1,.3908-.6986,1.7812,1.7812,0,0,1,.6334-.4531,2.1654,2.1654,0,0,1,.8664-.1639,2.6392,2.6392,0,0,1,.5543.05,2.2315,2.2315,0,0,1,.4464.1457q-.0254.09-.0538.1785c-.0192.06-.0372.119-.0541.1788A2.15,2.15,0,0,0,403.5956,104.4543Z" transform="translate(-14.7058 -12.4596)"/><path class="a" d="M407.482,108.4691a1.9717,1.9717,0,0,1-.8445-.1642,1.6184,1.6184,0,0,1-.59-.4613,1.9277,1.9277,0,0,1-.3484-.7,3.4967,3.4967,0,0,1-.0025-1.752,1.9365,1.9365,0,0,1,.3463-.7018,1.6216,1.6216,0,0,1,.5887-.4628,1.9787,1.9787,0,0,1,.8441-.1671,2.0161,2.0161,0,0,1,.8445.1646,1.5869,1.5869,0,0,1,.5933.461,2.0146,2.0146,0,0,1,.3484.7007,3.4035,3.4035,0,0,1,.0025,1.7523,2.0068,2.0068,0,0,1-.3463.7011,1.5772,1.5772,0,0,1-.5919.4631A1.9964,1.9964,0,0,1,407.482,108.4691Zm-.0005-.3566a1.5088,1.5088,0,0,0,.6434-.1286,1.1922,1.1922,0,0,0,.4551-.3669,1.6233,1.6233,0,0,0,.27-.5835,3.3744,3.3744,0,0,0-.0021-1.5418,1.6249,1.6249,0,0,0-.2716-.5828,1.204,1.204,0,0,0-.4562-.3655,1.5172,1.5172,0,0,0-.6437-.1268,1.5405,1.5405,0,0,0-.6466.1286,1.1893,1.1893,0,0,0-.4583.3673,1.6185,1.6185,0,0,0-.27.5832,3.3759,3.3759,0,0,0,.0021,1.5421,1.6247,1.6247,0,0,0,.2716.5828,1.1968,1.1968,0,0,0,.4594.3655A1.5326,1.5326,0,0,0,407.4815,108.1125Z" transform="translate(-14.7058 -12.4596)"/><path class="a" d="M411.6364,108.4634c-.1487,0-.2827-.005-.4015-.0157a2.4136,2.4136,0,0,1-.5864-.12,1.3007,1.3007,0,0,1-.2232-.0987c.0169-.0591.0358-.1186.0572-.1781s.04-.1168.057-.1724a2.17,2.17,0,0,0,.4464.1461,2.7085,2.7085,0,0,0,.5926.0563,2.043,2.043,0,0,0,.44-.0449.976.976,0,0,0,.3472-.1439.72.72,0,0,0,.2257-.2522.7479.7479,0,0,0,.0823-.3634.6613.6613,0,0,0-.0864-.3505.8109.8109,0,0,0-.233-.2415,1.3938,1.3938,0,0,0-.3381-.1681c-.1274-.0445-.2615-.09-.4017-.1368q-.1974-.0631-.4111-.1553a1.7567,1.7567,0,0,1-.389-.2287,1.1011,1.1011,0,0,1-.2873-.3377.9872.9872,0,0,1-.1122-.487,1.227,1.227,0,0,1,.0789-.4432.8667.8667,0,0,1,.2511-.3537,1.266,1.266,0,0,1,.4362-.2333,2.092,2.092,0,0,1,.64-.0873,2.7361,2.7361,0,0,1,.5607.0534,1.9517,1.9517,0,0,1,.4717.1621c-.0167.0595-.037.119-.06.1785s-.0435.1168-.06.1721a1.7726,1.7726,0,0,0-.4207-.1364,2.5047,2.5047,0,0,0-.4907-.047,1.1334,1.1334,0,0,0-.7579.2052.6674.6674,0,0,0-.2287.523.6369.6369,0,0,0,.08.3309.7512.7512,0,0,0,.2139.2291,1.43,1.43,0,0,0,.3154.1653q.1817.0695.3858.14.2292.0759.4558.1681a1.6811,1.6811,0,0,1,.4049.2319,1.1,1.1,0,0,1,.2905.347,1.0558,1.0558,0,0,1,.1122.5062,1.1607,1.1607,0,0,1-.1074.5194,1.0129,1.0129,0,0,1-.3021.3669,1.3521,1.3521,0,0,1-.4617.2209A2.2468,2.2468,0,0,1,411.6364,108.4634Z" transform="translate(-14.7058 -12.4596)"/><path class="a" d="M416.0765,107.6918l-.9524-2.0818q-.09-.1977-.1728-.3919c-.0554-.1293-.1108-.2814-.1662-.4553l-.0574.0064q.0321.2992.0358.5735t.0039.4332l.0039,2.6255-.4269,0-.0064-4.2948.5288-.0007,1.0484,2.3116c.0342.072.0705.1528.1087.2419s.0757.1785.112.2675.0693.1731.0992.2515.0533.1453.07.2006c.0169-.0467.0422-.1094.0764-.1881s.0707-.1635.1111-.2547.0793-.1831.1172-.2743.0741-.1731.1081-.2458l1.0415-2.3145.529-.0007.0064,4.2948-.4334,0-.0039-2.6251q0-.1592.0057-.43a5.4976,5.4976,0,0,1,.0438-.57l-.0509-.0128q-.089.2613-.1747.456t-.1744.3922l-.9465,2.0847Z" transform="translate(-14.7058 -12.4596)"/><path class="a" d="M419.7289,104.0992l2.5743-.0039.0005.3951-2.1347.0032.0023,1.4848,2.0072-.0028.0005.3947-2.0072.0032.0025,1.6248,2.1729-.0032.0005.3951-2.6125.0039Z" transform="translate(-14.7058 -12.4596)"/><path class="a" d="M424.91,104.4928l.0059,3.8937-.44,0-.0059-3.8933q-.3252.0005-.6628.0043t-.6624.0043l-.0007-.4082,3.09-.0043.0007.4079Z" transform="translate(-14.7058 -12.4596)"/><path class="a" d="M427.7066,108.3822l-.44.0007-.0064-4.2948.44-.0007Z" transform="translate(-14.7058 -12.4596)"/><path class="a" d="M430.9884,104.4137a1.4985,1.4985,0,0,0-1.1749.4734,2.35,2.35,0,0,0-.0025,2.6828,1.4879,1.4879,0,0,0,1.1763.47,2.4988,2.4988,0,0,0,.4939-.0484,2.1691,2.1691,0,0,0,.4424-.1375l.1088.3562a2.33,2.33,0,0,1-.4807.1667,2.5814,2.5814,0,0,1-.57.0581,2.3291,2.3291,0,0,1-.9018-.1578,1.6726,1.6726,0,0,1-.6282-.4453,1.8448,1.8448,0,0,1-.3707-.6939,3.17,3.17,0,0,1-.1224-.9048,2.8427,2.8427,0,0,1,.1325-.892,1.9415,1.9415,0,0,1,.3908-.6982,1.7777,1.7777,0,0,1,.6334-.4535,2.1654,2.1654,0,0,1,.8664-.1639,2.6632,2.6632,0,0,1,.5543.05,2.21,2.21,0,0,1,.4464.1461q-.0254.0892-.0538.1781t-.0541.1788A2.1558,2.1558,0,0,0,430.9884,104.4137Z" transform="translate(-14.7058 -12.4596)"/><path class="a" d="M371.2717,95.1906c-.003-2.161.544-3.6134,1.6257-4.317a7.5651,7.5651,0,0,1,3.81-1.2187,7.3253,7.3253,0,0,1,3.91,1.1093c1.1306.7012,1.7057,2.185,1.709,4.41l.0112,7.57-1.3912.0022a1.2679,1.2679,0,0,1-1.3421-1.3383l-.01-6.9447a2.48,2.48,0,0,0-.9-2.1012,3.0757,3.0757,0,0,0-1.894-.64,2.9766,2.9766,0,0,0-1.8839.6488,2.5161,2.5161,0,0,0-.8631,2.1l.0123,8.2849-2.7825.0041Z" transform="translate(-14.7058 -12.4596)"/><path class="a" d="M388.0124,102.76a4.9841,4.9841,0,0,1-2.9779-.9166,3.3907,3.3907,0,0,1-1.219-2.9705,3.158,3.158,0,0,1,1.0855-2.7465,6.8333,6.8333,0,0,1,2.9883-1.1532,3.4378,3.4378,0,0,0,.6625-.086c.2222-.048.4839-.0893.7779-.1226,1.7275-.238,2.598-.818,2.5963-1.7251a1.3622,1.3622,0,0,0-1.0793-1.3746,5.6814,5.6814,0,0,0-1.5607-.2432,4.15,4.15,0,0,0-1.4164.23,1.7609,1.7609,0,0,0-.9179.7438l-2.7091.0038a3.4947,3.4947,0,0,1,1.2054-1.9055,5.5494,5.5494,0,0,1,3.6767-1.0883,7.3751,7.3751,0,0,1,4.0684.8961,2.879,2.879,0,0,1,1.3107,2.53l.0071,4.6468a5.522,5.522,0,0,1-.6731,2.9782,4.1591,4.1591,0,0,1-1.6036,1.5223,5.9378,5.9378,0,0,1-2.1361.6529,20.2738,20.2738,0,0,1-2.0774.1286Zm3.3955-7.0613a9.3105,9.3105,0,0,1-1.906.6357l-1.1658.2552a3.3872,3.3872,0,0,0-1.5223.773l-.0308.0308-.0235.0368a2.4769,2.4769,0,0,0-.4171,1.3367,2.0439,2.0439,0,0,0,.5776,1.5048,2.3194,2.3194,0,0,0,1.6028.5222,3.22,3.22,0,0,0,3.46-3.4651l-.0025-1.9178Z" transform="translate(-14.7058 -12.4596)"/><path class="a" d="M407.5878,102.76a7.8494,7.8494,0,0,1-3.8107-1.1606c-1.08-.6663-1.6287-2.1157-1.632-4.3077l-.0112-7.57,2.7825-.0041.0123,8.2847a2.514,2.514,0,0,0,.8691,2.0976,2.9706,2.9706,0,0,0,1.8752.6434,3.08,3.08,0,0,0,1.903-.6453,2.48,2.48,0,0,0,.8936-2.1039l-.01-6.9447a1.324,1.324,0,0,1,.3748-.9532,1.26,1.26,0,0,1,.9635-.389l1.3912-.0019.0112,7.57c.0033,2.2562-.565,3.74-1.6893,4.4112A7.5917,7.5917,0,0,1,407.5878,102.76Z" transform="translate(-14.7058 -12.4596)"/><path class="a" d="M414.5522,96.016a8.0671,8.0671,0,0,1,.55-3.1878,5.1754,5.1754,0,0,1,1.49-2.0207,5.9468,5.9468,0,0,1,2.1282-1.0539,9.7437,9.7437,0,0,1,2.5756-.3472l.1144,0,.0041,2.8333-.7782.0014a3.3748,3.3748,0,0,0-2.4746.8344,3.4518,3.4518,0,0,0-.827,2.5281l.01,7.1641-2.7825.0041Z" transform="translate(-14.7058 -12.4596)"/><path class="a" d="M426.4622,102.76a4.9833,4.9833,0,0,1-2.9766-.9163,3.3914,3.3914,0,0,1-1.219-2.9705,3.1579,3.1579,0,0,1,1.0855-2.7462,6.83,6.83,0,0,1,2.9883-1.1535,3.4377,3.4377,0,0,0,.6627-.086c.22-.0478.4818-.089.7776-.1226,1.7272-.238,2.5977-.8183,2.5966-1.7253a1.3618,1.3618,0,0,0-1.08-1.3743,5.6588,5.6588,0,0,0-1.5583-.2432,4.15,4.15,0,0,0-1.4188.23,1.7611,1.7611,0,0,0-.9179.7438l-2.7091.0038a3.4975,3.4975,0,0,1,1.2054-1.9058,5.5479,5.5479,0,0,1,3.6767-1.088,7.3764,7.3764,0,0,1,4.0684.8958,2.8812,2.8812,0,0,1,1.311,2.53l.0068,4.6468a5.522,5.522,0,0,1-.6731,2.9782,4.1562,4.1562,0,0,1-1.6033,1.5217,5.9293,5.9293,0,0,1-2.1364.6532,20.1186,20.1186,0,0,1-2.0769.1286Zm3.3969-7.061a9.3063,9.3063,0,0,1-1.906.6357l-1.1655.2549a3.3894,3.3894,0,0,0-1.5225.7733l-.0308.0308-.0235.0368a2.4769,2.4769,0,0,0-.4171,1.3364,2.0449,2.0449,0,0,0,.5776,1.5051,2.3218,2.3218,0,0,0,1.6031.5219,3.219,3.219,0,0,0,3.46-3.4649l-.0027-1.9175Z" transform="translate(-14.7058 -12.4596)"/><path class="a" d="M396.2,85.9864l1.4423-.0022a1.3253,1.3253,0,0,1,.9534.375,1.2,1.2,0,0,1,.3887.9122l.0038,2.6722,1.9019-.0027.0005.3188a1.26,1.26,0,0,1-.386.9646,1.3209,1.3209,0,0,1-.9521.3775l-.5617.0008.0164,11.1537-2.7822.0041Z" transform="translate(-14.7058 -12.4596)"/><path class="a" d="M485.1652,85.9864l1.4423-.0022a1.3251,1.3251,0,0,1,.9532.375,1.2,1.2,0,0,1,.3887.9122l.0041,2.6722,1.9017-.0027.0005.3188a1.26,1.26,0,0,1-.386.9646,1.3209,1.3209,0,0,1-.9521.3775l-.562.0008.0169,11.1537-2.7825.0041Z" transform="translate(-14.7058 -12.4596)"/><path class="a" d="M438.6015,95.1906c-.0033-2.161.5437-3.6134,1.6257-4.3168a7.5654,7.5654,0,0,1,3.81-1.219,10.0065,10.0065,0,0,1,2.1921.2427,4.46,4.46,0,0,1,1.8776.9362l.2588.2151.2541-.2205a4.1461,4.1461,0,0,1,1.6552-.8639,9.7808,9.7808,0,0,1,2.0851-.3218,7.3258,7.3258,0,0,1,3.9109,1.1093c1.13.7012,1.7054,2.185,1.7087,4.41v7.57l-1.38.0022a1.2683,1.2683,0,0,1-1.3421-1.3383l-.01-6.9447a2.481,2.481,0,0,0-.9-2.1012,3.13,3.13,0,0,0-3.7987.0055,2.4819,2.4819,0,0,0-.8939,2.1039l.0123,8.2849-2.7312.0041-.0123-8.2847a2.4825,2.4825,0,0,0-.9-2.1012,3.08,3.08,0,0,0-1.8959-.64,2.9735,2.9735,0,0,0-1.8823.6491,2.5147,2.5147,0,0,0-.8634,2.1l.0123,8.2849-2.7822.0041Z" transform="translate(-14.7058 -12.4596)"/><path class="a" d="M465.2167,102.76a5.2623,5.2623,0,0,1-4.2346-1.7461,7.3254,7.3254,0,0,1-1.5449-4.998,7.2344,7.2344,0,0,1,1.48-4.85,5.2691,5.2691,0,0,1,4.242-1.7581,5.7718,5.7718,0,0,1,4.46,1.7035,7.4406,7.4406,0,0,1,1.5373,4.99l.0005.5233-8.8977.0131.0134.4086a3.9023,3.9023,0,0,0,.8765,2.6053,2.7843,2.7843,0,0,0,2.2764.94,3.32,3.32,0,0,0,1.6527-.395,1.1133,1.1133,0,0,0,.3947-.2607l.3467-.3477.0289-.0884V99.5a1.7929,1.7929,0,0,1,.2481-.2205,1.16,1.16,0,0,1,.7029-.1744l2.02-.003a5.0451,5.0451,0,0,1-1.837,2.5518,6.1494,6.1494,0,0,1-3.752,1.1068Zm.0478-11.1829a2.8813,2.8813,0,0,0-2.117.8339,3.32,3.32,0,0,0-.8784,2.3089l-.015.4113,6.0467-.009-.0325-.4255a3.7006,3.7006,0,0,0-.8221-2.2808,2.8373,2.8373,0,0,0-2.1741-.8388h-.0076Z" transform="translate(-14.7058 -12.4596)"/><path class="a" d="M472.508,95.1906c-.0033-2.1607.5437-3.6131,1.6257-4.3168a7.5679,7.5679,0,0,1,3.81-1.219,7.33,7.33,0,0,1,3.91,1.11c1.1306.7009,1.7057,2.1847,1.709,4.41l.0112,7.57-1.3912.0022a1.2679,1.2679,0,0,1-1.3421-1.338l-.01-6.9447a2.4819,2.4819,0,0,0-.9-2.1015,3.0837,3.0837,0,0,0-1.8957-.64,2.9752,2.9752,0,0,0-1.8826.6491,2.5144,2.5144,0,0,0-.8631,2.1l.0123,8.2847-2.7825.0041Z" transform="translate(-14.7058 -12.4596)"/><path class="a" d="M495.2358,102.76A5.2621,5.2621,0,0,1,491,101.0141a7.3222,7.3222,0,0,1-1.5452-4.998,7.2321,7.2321,0,0,1,1.48-4.85,5.2667,5.2667,0,0,1,4.242-1.7581,5.7726,5.7726,0,0,1,4.46,1.7032,7.4416,7.4416,0,0,1,1.5373,4.99l.0005.5233-8.8977.0131.0134.4086a3.9023,3.9023,0,0,0,.8765,2.6053,2.7823,2.7823,0,0,0,2.2753.94,3.32,3.32,0,0,0,1.6535-.3947,1.1145,1.1145,0,0,0,.3939-.26l.3477-.3483.0289-.0887v.0008a1.8167,1.8167,0,0,1,.2481-.2205,1.1616,1.1616,0,0,1,.7031-.1744l2.02-.0027A5.046,5.046,0,0,1,499,101.6533a6.15,6.15,0,0,1-3.7517,1.1071Zm.0464-11.1832a2.8793,2.8793,0,0,0-2.1173.8341,3.32,3.32,0,0,0-.8781,2.3086l-.015.4113,6.0467-.009-.0325-.4255a3.7,3.7,0,0,0-.8221-2.2805,2.8389,2.8389,0,0,0-2.1741-.8391h-.0076Z" transform="translate(-14.7058 -12.4596)"/><path class="a" d="M438.3124,109.1726c-.6651-.2441-1.2607-.4768-1.2607-3.1062v-1.1352h.0072V78.7286a1.2047,1.2047,0,0,0-.4564-.9122,1.4767,1.4767,0,0,0-1.0217-.375l-1.3329.0022v28.7222c0,2.2609.4085,3.9949,1.4613,5.0141a3.8777,3.8777,0,0,0,1.86.9862,1.5176,1.5176,0,0,0,1.48-.5775A1.5536,1.5536,0,0,0,438.3124,109.1726Z" transform="translate(-14.7058 -12.4596)"/></svg>