<svg xmlns="http://www.w3.org/2000/svg" viewBox="0 0 330.3829 107.7035"><defs><style>.a{fill:#ebe5e3;}</style></defs><title>breathe_b</title><path class="a" d="M293.4654,114.0135a28.4415,28.4415,0,0,1-4.3335,8.9053,21.4556,21.4556,0,0,1-7.1979,6.2439,20.85,20.85,0,0,1-10.0631,2.3407,20.2392,20.2392,0,0,1-6.978-1.1019,23.65,23.65,0,0,1-5.2883-2.6614q-.9556-.7349-1.7257-1.3771t-1.5058-1.3785l.0728,5.417h-5.1412V59.062h5.0683V82.1072a23.71,23.71,0,0,1,7.4914-4.7285,22.6867,22.6867,0,0,1,8.1535-1.5139,20.7376,20.7376,0,0,1,16.71,7.9872,27.6026,27.6026,0,0,1,4.5909,8.86,37.5872,37.5872,0,0,1,.1464,21.3018Zm-3.5986-10.3294a29.4971,29.4971,0,0,0-1.1755-8.4463,20.93,20.93,0,0,0-3.489-6.9324,16.1837,16.1837,0,0,0-13.2579-6.3807,18.5529,18.5529,0,0,0-8.0432,1.79,22.9767,22.9767,0,0,0-7.5282,6.288v27.269a11.1017,11.1017,0,0,0,.7709.8724q.4027.4127.918.9636a15.2045,15.2045,0,0,0,1.469,1.4241q.8077.6885,1.7633,1.4227a21.4357,21.4357,0,0,0,4.5166,2.4334,16.27,16.27,0,0,0,6.1335,1.0549,15.95,15.95,0,0,0,7.7121-1.789,17.3226,17.3226,0,0,0,5.5825-4.7756,20.8034,20.8034,0,0,0,3.4154-6.9309,29.697,29.697,0,0,0,1.1387-8.2638Z" transform="translate(-249.6171 -59.062)"/><path class="a" d="M333.6205,87.6169a29.7993,29.7993,0,0,0-2.5717-3.1675,9.7881,9.7881,0,0,0-1.6154-1.3315,8.8743,8.8743,0,0,0-2.1671-.8724,11.1408,11.1408,0,0,0-2.8277-.3207,14.9956,14.9956,0,0,0-3.6722.5046,18.94,18.94,0,0,0-4.3342,1.79,38.4406,38.4406,0,0,0-7.6386,6.1512v40.03h-5.1419V76.9667h5.1419l-.0736,6.0585a34.5609,34.5609,0,0,1,2.7541-2.2951,23.4155,23.4155,0,0,1,2.9012-1.8361,29.3883,29.3883,0,0,1,4.7741-2.1568,15.93,15.93,0,0,1,5.289-.8724A17.93,17.93,0,0,1,328,76.2311a11.1582,11.1582,0,0,1,3.49,1.3771,12.7975,12.7975,0,0,1,2.46,1.79,44.3331,44.3331,0,0,1,3.0484,3.26Z" transform="translate(-249.6171 -59.062)"/><path class="a" d="M343.7771,105.6128a25.9248,25.9248,0,0,0,2.02,9.3187,18.7946,18.7946,0,0,0,4.2607,6.1512,15.361,15.361,0,0,0,5.51,3.3514,18.0736,18.0736,0,0,0,5.8393,1.0093,31.8458,31.8458,0,0,0,6.4263-.6885q3.3411-.6885,6.3174-1.5595t5.214-1.7449q2.24-.8717,3.0484-1.24l.3678,6.06q-4.407,1.6529-7.6386,2.6173t-6.9412,1.79a30.9614,30.9614,0,0,1-6.6484.8254,22.8783,22.8783,0,0,1-8.8141-1.79,19.9785,19.9785,0,0,1-7.7121-5.829,27.2976,27.2976,0,0,1-4.6638-8.7229,38.1384,38.1384,0,0,1-1.7257-12.12,33.74,33.74,0,0,1,1.7993-11.3843,24.8364,24.8364,0,0,1,5.1051-8.6316,24.0245,24.0245,0,0,1,7.0148-5.2331,20.1793,20.1793,0,0,1,8.9965-1.9273,17.6421,17.6421,0,0,1,8.4845,2.1568,22.51,22.51,0,0,1,7.1619,6.2895,29.9328,29.9328,0,0,1,4.2224,8.63,41.8784,41.8784,0,0,1,1.6537,12.6716Zm33.8616-5.7848a26.8453,26.8453,0,0,0-1.7625-6.7485,21.1146,21.1146,0,0,0-3.4162-5.7378,16.4132,16.4132,0,0,0-4.8477-3.9488,12.6834,12.6834,0,0,0-6.06-1.4683,16.3617,16.3617,0,0,0-6.8677,1.4227,17.0023,17.0023,0,0,0-5.4347,3.9017,19.8736,19.8736,0,0,0-3.7089,5.6921,21.2951,21.2951,0,0,0-1.69,6.7956h33.788Z" transform="translate(-249.6171 -59.062)"/><path class="a" d="M426.4548,130.4014a17.9272,17.9272,0,0,1-1.6522-2.7541,22.0532,22.0532,0,0,1-.918-2.2951,18.5858,18.5858,0,0,1-3.93,3.0307,23.4308,23.4308,0,0,1-4.15,1.8817,23.18,23.18,0,0,1-3.8928.9636,22.0943,22.0943,0,0,1-3.2323.2751,25.2309,25.2309,0,0,1-8.7773-1.3315,15.8383,15.8383,0,0,1-5.7657-3.5339,12.8352,12.8352,0,0,1-3.1587-5.0507,18.3346,18.3346,0,0,1-.9548-5.876,17.7756,17.7756,0,0,1,2.3142-9.457,17.1594,17.1594,0,0,1,6.647-6.1056,39.75,39.75,0,0,1,10.503-3.6722A133.7878,133.7878,0,0,1,423.37,94.32v-.2766a22.428,22.428,0,0,0-.55-5.2787A8.0527,8.0527,0,0,0,420.7995,85a9.26,9.26,0,0,0-3.9664-2.2951,21.5867,21.5867,0,0,0-6.3174-.78,23.563,23.563,0,0,0-5.3611.55,20.9064,20.9064,0,0,0-3.3794,1.0093q-1.0284.4612-1.1755.5517l-.5135-6.519a11.7183,11.7183,0,0,1,1.4683-.459q1.3219-.3663,3.8193-.78a31.7961,31.7961,0,0,1,5.2155-.4134q9.2554,0,13.5161,4.499,4.257,4.5,4.2592,13.22v25.7081q0,1.6529.0736,2.6173a8.8683,8.8683,0,0,0,.2942,1.7449,5.4809,5.4809,0,0,0,.6974,1.5139q.4767.7371,1.2858,1.9288l2.2774,3.3044Zm-3.0851-29.93a121.2371,121.2371,0,0,0-12.9276,2.02,37.45,37.45,0,0,0-8.7773,2.938,12.4262,12.4262,0,0,0-4.9948,4.2224,10.876,10.876,0,0,0-1.5786,5.9687,11.4976,11.4976,0,0,0,.4767,3.0763,7.5744,7.5744,0,0,0,1.9464,3.2131,11.1809,11.1809,0,0,0,4.15,2.5246,20.78,20.78,0,0,0,7.1619,1.0093,20.3529,20.3529,0,0,0,2.9748-.2751,16.8937,16.8937,0,0,0,3.8193-1.1019,18.5184,18.5184,0,0,0,4.0032-2.2951,16.809,16.809,0,0,0,3.6722-3.8561Z" transform="translate(-249.6171 -59.062)"/><path class="a" d="M476.352,129.4377a22.7366,22.7366,0,0,1-9.7689,2.0656,33.9834,33.9834,0,0,1-6.2071-.6415,16.0186,16.0186,0,0,1-11.4946-8.8155q-2.0568-3.9458-2.0568-10.4663V82.934H434.6312v-5.876h12.1935V62.0927h5.0683v14.874h27.25v5.876h-27.25V111.58a16.55,16.55,0,0,0,1.2476,6.978,10.9238,10.9238,0,0,0,3.3426,4.2239,11.8708,11.8708,0,0,0,4.7741,2.1112,27.0738,27.0738,0,0,0,5.4729.55,17.2761,17.2761,0,0,0,8.1152-1.9729q3.7825-1.9729,7.0883-4.0856l2.2039,5.5995A50.7913,50.7913,0,0,1,476.352,129.4377Z" transform="translate(-249.6171 -59.062)"/><path class="a" d="M525.3153,130.4014V93.768a23.6356,23.6356,0,0,0-.4414-4.7285,8.6339,8.6339,0,0,0-1.689-3.7178A9.6531,9.6531,0,0,0,520.21,82.98a11.2558,11.2558,0,0,0-5.3258-1.0549A22.7035,22.7035,0,0,0,505.85,84.22a15.5451,15.5451,0,0,0-2.3863,1.2844q-1.2866.8276-2.607,1.79-1.3241.9644-2.5349,2.02t-2.1671,1.9744v39.1124h-5.0683V59.062h5.0683V83.9447q2.0568-1.6529,4.04-3.0307a31.2707,31.2707,0,0,1,4.04-2.3863,24.37,24.37,0,0,1,10.7973-2.6629q7.7129,0,11.7521,5.2331a16.3238,16.3238,0,0,1,2.7188,5.3714,25.7136,25.7136,0,0,1,.8813,7.2075v36.7246Z" transform="translate(-249.6171 -59.062)"/><path class="a" d="M540.7023,105.6128a25.9248,25.9248,0,0,0,2.02,9.3187,18.7946,18.7946,0,0,0,4.2607,6.1512,15.361,15.361,0,0,0,5.51,3.3514,18.0736,18.0736,0,0,0,5.8393,1.0093,31.8458,31.8458,0,0,0,6.4263-.6885q3.3411-.6885,6.3174-1.5595t5.214-1.7449q2.24-.8717,3.0484-1.24l.3678,6.06q-4.407,1.6529-7.6386,2.6173t-6.9412,1.79a30.9614,30.9614,0,0,1-6.6484.8254,22.8783,22.8783,0,0,1-8.8141-1.79,19.9785,19.9785,0,0,1-7.7121-5.829,27.2976,27.2976,0,0,1-4.6638-8.7229,38.1384,38.1384,0,0,1-1.7257-12.12,33.74,33.74,0,0,1,1.7993-11.3843,24.8364,24.8364,0,0,1,5.1051-8.6316,24.0245,24.0245,0,0,1,7.0148-5.2331,20.1793,20.1793,0,0,1,8.9965-1.9273,17.6421,17.6421,0,0,1,8.4845,2.1568,22.51,22.51,0,0,1,7.1619,6.2895,29.9328,29.9328,0,0,1,4.2224,8.63A41.8784,41.8784,0,0,1,580,105.6128Zm33.8616-5.7848a26.8453,26.8453,0,0,0-1.7625-6.7485,21.1146,21.1146,0,0,0-3.4162-5.7378,16.4132,16.4132,0,0,0-4.8477-3.9488,12.6834,12.6834,0,0,0-6.06-1.4683,16.3617,16.3617,0,0,0-6.8677,1.4227,17.0023,17.0023,0,0,0-5.4347,3.9017,19.8736,19.8736,0,0,0-3.7089,5.6921,21.2951,21.2951,0,0,0-1.69,6.7956h33.788Z" transform="translate(-249.6171 -59.062)"/><path class="a" d="M267.7926,145.3784a9.965,9.965,0,0,0-3.4522-1.9023,13.1487,13.1487,0,0,0-7.9321-.0015,9.99,9.99,0,0,0-3.4529,1.9038,9.5185,9.5185,0,0,0-2.421,3.2161,11.4624,11.4624,0,0,0-.0006,8.9847,9.5285,9.5285,0,0,0,2.4217,3.2161,10.1331,10.1331,0,0,0,3.4485,1.9141,12.7622,12.7622,0,0,0,3.9692.6283,13.0285,13.0285,0,0,0,3.9666-.615,9.9769,9.9769,0,0,0,3.4529-1.9038,9.529,9.529,0,0,0,2.4214-3.2161,11.5238,11.5238,0,0,0,0-9.0083A9.528,9.528,0,0,0,267.7926,145.3784Zm.0955,7.7077a7.5564,7.5564,0,0,1-.6067,3.1587,6.2887,6.2887,0,0,1-1.6242,2.1877,6.94,6.94,0,0,1-2.3813,1.3138,9.7343,9.7343,0,0,1-5.8032,0,6.9354,6.9354,0,0,1-2.3819-1.3138,6.445,6.445,0,0,1-1.64-2.1921,8.4026,8.4026,0,0,1,.0009-6.3188,6.47,6.47,0,0,1,1.6286-2.2054,6.815,6.815,0,0,1,2.3666-1.3138,9.73,9.73,0,0,1,5.8179.0014,6.8724,6.8724,0,0,1,2.3929,1.3153,6.3963,6.3963,0,0,1,1.6383,2.201,7,7,0,0,1,.592,2.4526Zm21.25,1.608a7.56,7.56,0,0,0,2.0473-1.2873,6.1852,6.1852,0,0,0,1.4132-1.8243,5.3409,5.3409,0,0,0-2.0222-6.8971c-1.6067-1-3.9724-1.4874-7.2317-1.4874h-7.0693v19.8011h3.2189V155.55H284.05l7.6413,7.4487h4.58l-8.1955-7.92A9.5716,9.5716,0,0,0,289.1384,154.6941Zm-4.3711-2.2642h-5.2728v-6.0865h3.6577a17.8573,17.8573,0,0,1,3.7735.3178,6.2713,6.2713,0,0,1,2.0274.7606,1.9165,1.9165,0,0,1,.7652.8283,2.7982,2.7982,0,0,1,.2014,1.0033,2.3031,2.3031,0,0,1-.2774,1.077,3.0133,3.0133,0,0,1-.8819.9975,5.3629,5.3629,0,0,1-1.6175.7871A7.9547,7.9547,0,0,1,284.7674,152.43Zm18.1056-4.8816a6.9655,6.9655,0,0,1,2.3813-1.1975,8.9394,8.9394,0,0,1,4.2166-.1971,5.1419,5.1419,0,0,1,1.3358.5165,5.3953,5.3953,0,0,1,1.1727.8989,15.3261,15.3261,0,0,1,1.2392,1.4242l.423.5443,2.6963-1.736-.5077-.65a18.752,18.752,0,0,0-1.597-1.81,8.981,8.981,0,0,0-1.7919-1.37,8.0466,8.0466,0,0,0-2.1415-.8387,12.2,12.2,0,0,0-6.1012.2634,10.232,10.232,0,0,0-3.4079,1.7684,9.6681,9.6681,0,0,0-2.59,3.1867,11.3829,11.3829,0,0,0-.1486,9.0994,9.8172,9.8172,0,0,0,2.337,3.22,9.9881,9.9881,0,0,0,3.3625,1.995,11.7174,11.7174,0,0,0,3.9407.6709,15.17,15.17,0,0,0,1.9919-.128,11.9678,11.9678,0,0,0,1.9-.412,13.0272,13.0272,0,0,0,1.8677-.7268,15.6213,15.6213,0,0,0,1.9124-1.1019l.3357-.2236v-7.93H305.4927v3.169h6.99v3.0749a9.8285,9.8285,0,0,1-7.5811.68,6.9011,6.9011,0,0,1-2.36-1.37,6.2632,6.2632,0,0,1-1.57-2.2083,7.6116,7.6116,0,0,1-.5775-3.05,7.32,7.32,0,0,1,.6989-3.378A6.4961,6.4961,0,0,1,302.873,147.5484Zm24.237-4.35-8.7391,19.8011h3.4773l2.6511-5.9776h7.2656l2.6755,5.9776h3.5021l-8.7654-19.8011Zm-1.2086,10.6781,1.3514-3.1352q.4138-.9268.7922-1.8523c.0285-.0722.0581-.1427.0881-.2149.0428.0986.0856.1957.1288.2929l2.1252,4.9094Zm29.486-9.9249q0,5.5458.0134,9.3539.0065,2.2555.0177,3.9944l-11.4027-14.1016h-2.6563v19.8011h3.2424v-.7532q0-5.5215-.013-9.3423-.0068-2.26-.0177-3.9987,1.5316,1.8978,3.6088,4.4621l7.7952,9.6321h2.655V143.1981h-3.2429Zm8.5332,19.0478h3.2411V143.1981h-3.2411Zm25.5125-7.1575-.431.6268a12.32,12.32,0,0,1-1.0681,1.3286,8.7469,8.7469,0,0,1-1.3764,1.2078,6.8873,6.8873,0,0,1-1.7066.8813,7.9106,7.9106,0,0,1-4.8662-.1162,6.8037,6.8037,0,0,1-2.3566-1.3123,6.4913,6.4913,0,0,1-1.6288-2.195,7.4283,7.4283,0,0,1-.6164-3.1514,7.5385,7.5385,0,0,1,.6488-3.2882,6.2953,6.2953,0,0,1,1.6979-2.1877,6.9164,6.9164,0,0,1,2.4037-1.2506c2.16-.6355,4.5374-.534,5.9717.4723a8.3764,8.3764,0,0,1,2.2553,2.3923l.3945.6193,2.7444-1.6477-.4252-.6547a13.9311,13.9311,0,0,0-1.4529-1.8714,8.92,8.92,0,0,0-1.8278-1.5139,8.6977,8.6977,0,0,0-2.232-.98,9.732,9.732,0,0,0-2.64-.3414,12.2819,12.2819,0,0,0-4.2356.7092,10.3526,10.3526,0,0,0-3.436,2.0715,9.4966,9.4966,0,0,0-2.276,3.2572,11.2653,11.2653,0,0,0,.0257,8.4448,10.0517,10.0517,0,0,0,2.3687,3.3323,9.8107,9.8107,0,0,0,3.1439,1.91,11.6277,11.6277,0,0,0,4.29.7534,9.3657,9.3657,0,0,0,3.0026-.462,10.1778,10.1778,0,0,0,2.4186-1.1858,10.9482,10.9482,0,0,0,1.9163-1.6316,21.1129,21.1129,0,0,0,1.4624-1.7507l.46-.6209Z" transform="translate(-249.6171 -59.062)"/><path class="a" d="M401.5058,166.7655V141.4561h1.6389v25.3094Z" transform="translate(-249.6171 -59.062)"/><path class="a" d="M430.6845,159.5462a10.1526,10.1526,0,0,1-1.7846,1.5183,9.3644,9.3644,0,0,1-2.2407,1.0975,8.55,8.55,0,0,1-2.76.4222,10.851,10.851,0,0,1-4.0135-.7,9.045,9.045,0,0,1-2.9057-1.76,9.26,9.26,0,0,1-2.1936-3.0851,10.5166,10.5166,0,0,1-.0235-7.846,8.7216,8.7216,0,0,1,2.0965-3.0013,9.5669,9.5669,0,0,1,3.1822-1.9155,11.4837,11.4837,0,0,1,3.9767-.6635,8.928,8.928,0,0,1,2.4349.3134,7.84,7.84,0,0,1,2.0376.893,8.12,8.12,0,0,1,1.6742,1.3859,13.1147,13.1147,0,0,1,1.3741,1.7713l-1.4462.868a9.1,9.1,0,0,0-2.4584-2.6041,6.1485,6.1485,0,0,0-3.6163-1.0122,10.5989,10.5989,0,0,0-3,.434,7.62,7.62,0,0,0-2.6644,1.3859,7.0211,7.0211,0,0,0-1.9038,2.4466,8.2377,8.2377,0,0,0-.7238,3.6163,8.1376,8.1376,0,0,0,.6871,3.4706,7.22,7.22,0,0,0,1.82,2.4466,7.5287,7.5287,0,0,0,2.6158,1.458,9.7743,9.7743,0,0,0,3.05.4826,6.8253,6.8253,0,0,0,2.301-.3737,7.64,7.64,0,0,0,1.892-.9769,9.4042,9.4042,0,0,0,1.4948-1.3138,13.0261,13.0261,0,0,0,1.1328-1.4094l1.3741.9636A20.151,20.151,0,0,1,430.6845,159.5462Z" transform="translate(-249.6171 -59.062)"/><path class="a" d="M455.6437,157.2806a8.737,8.737,0,0,1-2.2289,2.9645,9.1614,9.1614,0,0,1-3.194,1.76,12.1933,12.1933,0,0,1-3.7369.58,11.9326,11.9326,0,0,1-3.7354-.5914,9.3315,9.3315,0,0,1-3.194-1.7713,8.737,8.737,0,0,1-2.2289-2.9645,10.7187,10.7187,0,0,1,0-8.34,8.737,8.737,0,0,1,2.2289-2.9645,9.1851,9.1851,0,0,1,3.194-1.76,12.33,12.33,0,0,1,7.4723,0,9.1851,9.1851,0,0,1,3.194,1.76,8.737,8.737,0,0,1,2.2289,2.9645,10.7768,10.7768,0,0,1,0,8.3639Zm-.8665-4.1944a8.2162,8.2162,0,0,0-.6871-3.4824,7.1024,7.1024,0,0,0-1.8331-2.4584,7.5984,7.5984,0,0,0-2.6511-1.4594,10.2769,10.2769,0,0,0-3.1455-.4811,10.1605,10.1605,0,0,0-3.1337.4811,7.5188,7.5188,0,0,0-2.6276,1.4594,7.1822,7.1822,0,0,0-1.82,2.4584,9.1427,9.1427,0,0,0,0,6.9545,7.1534,7.1534,0,0,0,1.8331,2.4466,7.6319,7.6319,0,0,0,2.6394,1.458,10.4418,10.4418,0,0,0,6.2659,0,7.6319,7.6319,0,0,0,2.6394-1.458,6.9934,6.9934,0,0,0,1.82-2.4466,8.2593,8.2593,0,0,0,.6753-3.4721Z" transform="translate(-249.6171 -59.062)"/><path class="a" d="M476.6881,159.2093a5.6659,5.6659,0,0,1-1.711,1.7346,9.1187,9.1187,0,0,1-2.6644,1.2064,12.428,12.428,0,0,1-3.3867.434,17.1442,17.1442,0,0,1-2.7835-.206,10.3015,10.3015,0,0,1-2.2657-.6267,8.3743,8.3743,0,0,1-1.8434-1.0357,10.0177,10.0177,0,0,1-1.52-1.4109l1.3506-1.1078a6.9413,6.9413,0,0,0,2.7232,2.0244,10.9609,10.9609,0,0,0,4.3636.7474,10.05,10.05,0,0,0,2.9277-.3855,8.4167,8.4167,0,0,0,2.1818-.9887,3.7455,3.7455,0,0,0,1.1328-1.1446,2.6373,2.6373,0,0,0,.41-1.4109,2.3278,2.3278,0,0,0-.4826-1.5551,3.94,3.94,0,0,0-1.0357-.88,6.4968,6.4968,0,0,0-.6871-.3134q-.3752-.1434-.9769-.3251t-1.5065-.3972q-.9048-.2163-2.2539-.5061-1.3969-.3134-2.2892-.5311c-.5958-.1442-1.0887-.2722-1.483-.3855a8.6221,8.6221,0,0,1-.9636-.3251q-.3752-.1567-.7121-.3251a5.0812,5.0812,0,0,1-.7474-.5179,3.3421,3.3421,0,0,1-.6385-.7238,3.7956,3.7956,0,0,1-.4458-.9636,4.0243,4.0243,0,0,1-.1692-1.1932,3.6707,3.6707,0,0,1,.5429-1.8684,4.2053,4.2053,0,0,1,1.7243-1.5551,8.94,8.94,0,0,1,2.47-.8077,17.4109,17.4109,0,0,1,3.0969-.253,15.6809,15.6809,0,0,1,2.6879.206,8.6557,8.6557,0,0,1,2.0729.6135,5.5262,5.5262,0,0,1,1.5668,1.049,6.9869,6.9869,0,0,1,1.17,1.5065l-1.5183.7959a4.8226,4.8226,0,0,0-.8327-1.0858A4.2637,4.2637,0,0,0,473,145.8919a6.6134,6.6134,0,0,0-1.6742-.4943,13.4573,13.4573,0,0,0-2.2789-.1692,15.1386,15.1386,0,0,0-2.7232.23,7.0613,7.0613,0,0,0-2.0244.6385,2.3222,2.3222,0,0,0-1.3741,2.0729,1.9344,1.9344,0,0,0,.3487,1.1446,2.47,2.47,0,0,0,.9283.7842,5.5166,5.5166,0,0,0,.7356.3q.3972.1346,1,.3016.6025.17,1.47.3619.8673.1942,2.17.4826,1.1078.2405,1.9523.4458t1.5183.3972a9.3453,9.3453,0,0,1,1.1932.4222,6.2308,6.2308,0,0,1,.9769.5414,5.21,5.21,0,0,1,.7591.5914,4.61,4.61,0,0,1,.6738.7959,3.9035,3.9035,0,0,1,.4826,1.0122,4.0549,4.0549,0,0,1,.181,1.24A4.1334,4.1334,0,0,1,476.6881,159.2093Z" transform="translate(-249.6171 -59.062)"/><path class="a" d="M506.2625,162.2459v-9.1348q0-3.7362.0235-6.0747-1.5426,2.337-4.037,6.0864-2.4937,3.7472-6.0864,9.123h-1.1564q-3.5927-5.3736-6.0747-9.148-2.4827-3.7715-4.0253-6.0614.0243,2.337.0353,6.0864.0132,3.7472.0132,9.123h-1.736V143.9513h1.6625q3.9061,5.8812,6.569,9.87t4.1577,6.2556q1.494-2.2664,4.1459-6.2556t6.5808-9.87h1.6389v18.2946Z" transform="translate(-249.6171 -59.062)"/><path class="a" d="M514.772,162.2459V143.9513h12.4141V145.59H516.4831v6.2909h8.7023V153.52h-8.7023v7.0633h11.04v1.6625Z" transform="translate(-249.6171 -59.062)"/><path class="a" d="M539.696,145.59v16.6557h-1.711V145.6138h-7.04v-1.6625h15.7891V145.59Z" transform="translate(-249.6171 -59.062)"/><path class="a" d="M552.0616,162.2459V143.9513h1.7346v18.2946Z" transform="translate(-249.6171 -59.062)"/><path class="a" d="M576.9722,159.5462a10.1526,10.1526,0,0,1-1.7846,1.5183,9.3645,9.3645,0,0,1-2.2407,1.0975,8.55,8.55,0,0,1-2.76.4222,10.851,10.851,0,0,1-4.0135-.7,9.045,9.045,0,0,1-2.9057-1.76,9.26,9.26,0,0,1-2.1936-3.0851,10.5166,10.5166,0,0,1-.0235-7.846,8.7216,8.7216,0,0,1,2.0965-3.0013,9.5669,9.5669,0,0,1,3.1822-1.9155,11.4837,11.4837,0,0,1,3.9767-.6635,8.928,8.928,0,0,1,2.4349.3134,7.84,7.84,0,0,1,2.0376.893,8.12,8.12,0,0,1,1.6742,1.3859,13.1147,13.1147,0,0,1,1.3741,1.7713l-1.4462.868a9.1,9.1,0,0,0-2.4584-2.6041,6.1485,6.1485,0,0,0-3.6163-1.0122,10.5989,10.5989,0,0,0-3,.434,7.62,7.62,0,0,0-2.6644,1.3859,7.0211,7.0211,0,0,0-1.9038,2.4466,8.2377,8.2377,0,0,0-.7238,3.6163,8.1376,8.1376,0,0,0,.6871,3.4706,7.22,7.22,0,0,0,1.82,2.4466,7.5287,7.5287,0,0,0,2.6158,1.458,9.7743,9.7743,0,0,0,3.05.4826,6.8253,6.8253,0,0,0,2.301-.3737,7.64,7.64,0,0,0,1.892-.9769,9.4042,9.4042,0,0,0,1.4948-1.3138,13.0261,13.0261,0,0,0,1.1328-1.4094l1.3741.9636A20.151,20.151,0,0,1,576.9722,159.5462Z" transform="translate(-249.6171 -59.062)"/></svg>