<?xml version="1.0" encoding="utf-8"?><svg version="1.1" id="Livello_1" xmlns="http://www.w3.org/2000/svg" xmlns:xlink="http://www.w3.org/1999/xlink" x="0px" y="0px"
	 viewBox="0 0 542 406" style="enable-background:new 0 0 542 406;" xml:space="preserve"><style type="text/css">.st0{fill:#FFF;}</style><g><path class="st0" d="M244.2096,355.5842c-5.841,0-10.1853-2.0954-13.0348-6.2919c-2.8515-4.1946-4.2752-9.483-4.2752-15.8689
		c0-5.4246,0.6888-9.8475,2.0685-13.2688c2.6672-6.4282,7.5621-9.6441,14.6888-9.6441c7.0345,0,11.8623,3.2831,14.4816,9.8495
		c1.3796,3.4654,2.0704,7.8442,2.0704,13.1326c0,6.6124-1.4046,11.9468-4.208,16.0052
		C253.1955,353.556,249.2657,355.5842,244.2096,355.5842 M249.1295,293.4806c-5.4611,0-9.9588,1.1398-13.4915,3.4194
		c-2.9838,1.8249-5.7143,4.469-8.1916,7.9344v-35.8403h-19.4936v100.6802h19.2193v-9.3698
		c2.6116,3.6477,5.0408,6.2018,7.2878,7.6601c3.7571,2.4619,8.7308,3.6938,14.9171,3.6938c9.8552,0,17.5325-3.807,23.032-11.4229
		c5.4994-7.614,8.2492-17.2121,8.2492-28.7943c0-11.1715-2.7881-20.2899-8.3643-27.359
		C266.7177,297.0151,258.9962,293.4806,249.1295,293.4806 M153.5783,325.1474c-7.5794,0.9575-13.3226,2.5559-17.2274,4.7895
		c-7.1189,4.1025-10.6784,10.7379-10.6784,19.9024c0,7.069,2.2125,12.5281,6.6393,16.3812
		c4.4249,3.8531,10.0318,5.7796,16.8187,5.7796c5.321,0,10.0912-1.2089,14.3108-3.6247c3.5307-2.0532,6.6507-4.5362,9.3563-7.4548
		c0.1362,1.6867,0.3185,3.191,0.5469,4.5131c0.2283,1.324,0.6389,2.7363,1.2319,4.2407h21.2014v-2.8725
		c-1.276-0.593-2.2336-1.3452-2.8725-2.2566c-0.639-0.9115-1.0247-2.6442-1.1629-5.1982c-0.0902-3.3753-0.1362-6.2477-0.1362-8.6195
		v-34.1978c0-8.9821-3.1815-15.0917-9.5482-18.3308c-6.3648-3.2371-13.6469-4.8547-21.8442-4.8547
		c-12.5934,0-21.4777,3.2831-26.6528,9.8495c-3.2525,4.1946-5.0831,9.552-5.4956,16.0723h18.8105
		c0.4605-2.8725,1.3854-5.1521,2.7728-6.8388c1.9399-2.2796,5.2461-3.4213,9.9147-3.4213c4.1581,0,7.3127,0.5814,9.4619,1.7442
		c2.1491,1.1628,3.2256,3.2736,3.2256,6.3264c0,2.5098-1.4008,4.3558-4.2042,5.5417c-1.5619,0.6831-4.1562,1.253-7.7848,1.7097
		L153.5783,325.1474z M172.1816,340.6748c-0.1401,6.5202-2.0032,11.0103-5.5915,13.4742
		c-3.5882,2.4619-7.5123,3.6918-11.7721,3.6918c-2.6845,0-4.966-0.7387-6.8407-2.222c-1.8748-1.4814-2.813-3.8876-2.813-7.2149
		c0-3.7399,1.535-6.4991,4.6052-8.276c1.8133-1.0496,4.801-1.938,8.9611-2.6691l4.4363-0.8194
		c2.2182-0.4107,3.9624-0.8558,5.2346-1.3336c1.2703-0.4797,2.531-1.1053,3.7802-1.8824V340.6748z M46.7425,369.6743h71.4062
		v-18.1255H67.8095v-82.691H46.7425V369.6743z"/>
	<path class="st0" d="M437.286,284.433c2.0992,0.1363,3.6746,0.2149,4.7261,0.238c1.0496,0.023,2.4407,0.0345,4.1754,0.0345
		c8.6272,0,14.3799-1.6982,17.2562-5.0945c2.8745-3.3983,6.7831-12.1636,11.7223-26.2998l25.5591-73.3212h-20.7255l-15.3893,54.9924
		l-16.2776-54.9924h-21.6811l27.3935,77.8363c0.1362,0.5469-0.2859,2.0513-1.2664,4.5151
		c-0.9806,2.4619-2.0417,4.0795-3.1815,4.8547c-1.1858,0.8213-2.6442,1.3452-4.3769,1.5735
		c-1.7328,0.2284-3.5556,0.2955-5.4707,0.2053l-2.4638-0.1362V284.433z M390.4352,194.5598v45.8932
		c0,4.6513,1.0938,8.0956,3.2832,10.3292c3.3733,3.5115,9.6652,5.1061,18.8776,4.7875l9.2335-0.3434v-14.5679
		c-0.639,0.046-1.2895,0.0806-1.9496,0.1036c-0.662,0.0231-1.2895,0.0326-1.8804,0.0326c-3.9682,0-6.3399-0.3761-7.1132-1.1283
		c-0.7771-0.7522-1.1629-2.6557-1.1629-5.7105v-39.3959h12.1061v-13.8849h-12.1061v-20.7927h-19.2883v20.7927h-10.3963v13.8849
		H390.4352z M301.5886,179.9899v44.9376c0,8.5274,1.0669,14.9786,3.2045,19.3555c3.8185,7.9344,11.231,11.9026,22.2337,11.9026
		c3.8204,0,7.1496-0.5028,9.9934-1.5063c2.8418-1.0016,5.7853-2.8725,8.8325-5.6088c0.9997-0.8654,1.8632-1.869,2.5905-3.0087
		c0.7272-1.1398,1.182-1.8229,1.3643-2.0513v10.5325h18.9467v-74.5531h-19.768v40.5607c0,4.7875-0.6351,8.6406-1.9055,11.5592
		c-2.4503,5.3804-6.9884,8.0707-13.6104,8.0707c-5.1732,0-8.6425-1.892-10.4136-5.6779c-0.9978-2.1414-1.4967-5.3344-1.4967-9.5751
		v-44.9376H301.5886z M247.0759,210.0161c-7.5794,0.9575-13.3206,2.5559-17.2255,4.7895
		c-7.1209,4.1025-10.6804,10.7379-10.6804,19.9023c0,7.0691,2.2125,12.5282,6.6393,16.3813
		c4.4249,3.853,10.0318,5.7796,16.8206,5.7796c5.3191,0,10.0893-1.2089,14.3089-3.6247c3.5307-2.0532,6.6508-4.5361,9.3564-7.4547
		c0.1362,1.6867,0.3185,3.191,0.5468,4.5131c0.2284,1.324,0.639,2.7363,1.232,4.2406h21.2033v-2.8725
		c-1.278-0.5929-2.2355-1.3451-2.8725-2.2566c-0.639-0.9115-1.0266-2.6441-1.1628-5.1981
		c-0.0921-3.3753-0.1382-6.2478-0.1382-8.6176v-34.1997c0-8.9821-3.1815-15.0918-9.5463-18.3289
		c-6.3667-3.2371-13.6488-4.8566-21.8442-4.8566c-12.5953,0-21.4796,3.2832-26.6548,9.8495
		c-3.2505,4.1946-5.0831,9.552-5.4937,16.0723h18.8086c0.4605-2.8725,1.3854-5.1521,2.7727-6.8388
		c1.9419-2.2796,5.2462-3.4213,9.9147-3.4213c4.1601,0,7.3146,0.5814,9.4637,1.7442c2.1492,1.1629,3.2237,3.2736,3.2237,6.3265
		c0,2.5098-1.4008,4.3558-4.2023,5.5417c-1.5639,0.6831-4.1581,1.253-7.7867,1.7097L247.0759,210.0161z M265.6792,225.5434
		c-0.1401,6.5203-2.0013,11.0123-5.5915,13.4742c-3.5883,2.4619-7.5104,3.6938-11.7702,3.6938c-2.6864,0-4.966-0.7407-6.8407-2.224
		c-1.8766-1.4814-2.813-3.8876-2.813-7.2149c0-3.7399,1.5351-6.4991,4.6053-8.276c1.8133-1.0497,4.799-1.9381,8.9591-2.6692
		l4.4383-0.8194c2.2182-0.4106,3.9624-0.8558,5.2327-1.3336c1.2722-0.4797,2.5309-1.1053,3.7801-1.8824V225.5434z
		 M177.3755,178.0078c-10.9259,0-19.814,3.4462-26.6605,10.3368c-6.8465,6.8906-10.2697,16.7957-10.2697,29.7096
		c0,13.7831,3.7917,23.7323,11.3769,29.8477c7.5852,6.1135,16.3371,9.1721,26.2595,9.1721c12.0216,0,21.3702-3.6247,28.0479-10.8761
		c4.2925-4.5592,6.7026-9.0493,7.2264-13.4742h-19.9004c-1.1609,2.1894-2.4984,3.8991-4.0123,5.131
		c-2.7746,2.2796-6.384,3.4194-10.8242,3.4194c-4.1869,0-7.7694-0.9345-10.7475-2.8034c-4.895-3.0107-7.4932-8.253-7.7963-15.7326
		h54.2977c0.0978-6.4378-0.1171-11.3712-0.6409-14.7963c-0.9076-5.8449-2.8879-10.9816-5.9408-15.4122
		c-3.3868-5.0236-7.6831-8.6981-12.8831-11.0295C189.708,179.1725,183.8632,178.0078,177.3755,178.0078 M177.3832,194.0801
		c4.5995,0,8.4526,1.3412,11.5611,4.0199c3.1085,2.6788,4.8374,6.6047,5.1924,11.7798h-33.5818
		c0.7062-4.8547,2.4369-8.7001,5.1924-11.54C168.5009,195.5,172.3789,194.0801,177.3832,194.0801 M95.8052,153.7266H47.0836
		v100.8165h45.4269c5.1214,0,9.8706-0.4548,14.2455-1.3681c4.375-0.9115,8.1724-2.5981,11.3922-5.0619
		c2.8553-2.1414,5.2346-4.7876,7.1381-7.9325c2.9934-4.7415,4.4901-10.0989,4.4901-16.0742c0-5.7892-1.3105-10.7148-3.9279-14.7732
		c-2.6192-4.0584-6.501-7.0211-11.6455-8.892c3.3868-1.7327,5.9485-3.6477,7.6889-5.745c3.1123-3.7379,4.6685-8.6866,4.6685-14.8423
		c0-5.9734-1.5427-11.1025-4.6263-15.3892C116.8089,157.4876,108.0993,153.9089,95.8052,153.7266 M92.0078,210.1543
		c4.327,0.046,7.685,0.616,10.074,1.7097c4.281,1.9611,6.4224,5.5628,6.4224,10.807c0,6.2017-2.2086,10.3963-6.6258,12.5838
		c-2.435,1.1878-5.8371,1.7788-10.2083,1.7788H67.1932v-26.8793H92.0078z M89.1238,171.2361c4.8278,0,8.7999,0.5239,11.9141,1.5735
		c3.6094,1.5044,5.415,4.6052,5.415,9.3007c0,4.2406-1.3662,7.1938-4.0948,8.8574c-2.7305,1.6655-6.2842,2.4964-10.6611,2.4964
		H67.1932v-22.228H89.1238z"/>
	<path class="st0" d="M405.7308,63.081c-6.1307,0-11.1946,1.5044-15.1896,4.5151c-2.224,1.6866-4.586,4.446-7.0825,8.276v-10.876
		h-18.8777v74.4169h19.4936V99.0576c0-4.6053,0.6332-8.3892,1.9016-11.3538c2.4427-5.6089,6.9463-8.4123,13.5107-8.4123
		c5.3401,0,8.961,1.9151,10.8626,5.7451c1.0419,2.0973,1.562,5.108,1.562,9.0282v45.3482h19.9714V89.2082
		c0-9.3468-2.4408-16.0378-7.3204-20.0731C419.6809,65.0997,413.4043,63.081,405.7308,63.081 M317.5884,62.8757
		c-10.926,0-19.8141,3.4463-26.6586,10.3388c-6.8484,6.8906-10.2716,16.7938-10.2716,29.7076
		c0,13.7832,3.7916,23.7324,11.3768,29.8477c7.5852,6.1154,16.3391,9.1722,26.2595,9.1722c12.0216,0,21.3702-3.6247,28.0479-10.8741
		c4.2944-4.5593,6.7026-9.0513,7.2264-13.4742h-19.9004c-1.1609,2.1894-2.4984,3.8992-4.0123,5.1292
		c-2.7747,2.2814-6.3841,3.4212-10.8243,3.4212c-4.187,0-7.7694-0.9345-10.7475-2.8053c-4.895-3.0087-7.4931-8.253-7.7963-15.7307
		h54.2997c0.096-6.4397-0.1189-11.3712-0.6428-14.7963c-0.9057-5.8467-2.886-10.9835-5.9408-15.4122
		c-3.3867-5.0236-7.6831-8.7001-12.8831-11.0296C329.9209,64.0405,324.076,62.8757,317.5884,62.8757 M317.5961,78.95
		c4.5995,0,8.4525,1.3394,11.5611,4.0181c3.1085,2.6806,4.8374,6.6066,5.1924,11.7818h-33.5818
		c0.7061-4.8548,2.437-8.7001,5.1924-11.54C308.7137,80.3699,312.5917,78.95,317.5961,78.95 M239.6849,62.8757
		c-10.9259,0-19.814,3.4463-26.6605,10.3388c-6.8465,6.8906-10.2697,16.7938-10.2697,29.7076
		c0,13.7832,3.7916,23.7324,11.3768,29.8477c7.5833,6.1154,16.3371,9.1722,26.2595,9.1722c12.0216,0,21.3702-3.6247,28.0479-10.8741
		c4.2925-4.5593,6.7026-9.0513,7.2264-13.4742h-19.9004c-1.1609,2.1894-2.4984,3.8992-4.0123,5.1292
		c-2.7746,2.2814-6.384,3.4212-10.8242,3.4212c-4.187,0-7.7694-0.9345-10.7475-2.8053c-4.8951-3.0087-7.4931-8.253-7.7963-15.7307
		h54.2978c0.0979-6.4397-0.117-11.3712-0.6409-14.7963c-0.9076-5.8467-2.8879-10.9835-5.9408-15.4122
		c-3.3867-5.0236-7.6831-8.7001-12.8831-11.0296C252.0173,64.0405,246.1725,62.8757,239.6849,62.8757 M239.6926,78.95
		c4.5994,0,8.4525,1.3394,11.5611,4.0181c3.1085,2.6806,4.8374,6.6066,5.1924,11.7818h-33.5818
		c0.7062-4.8548,2.437-8.7001,5.1924-11.54C230.8102,80.3699,234.6882,78.95,239.6926,78.95 M194.6149,63.081
		c-5.8372,0-10.5786,1.5293-14.2264,4.5822c-2.2336,1.8248-4.8547,5.2232-7.8654,10.1911V64.8598h-18.6033v74.5532h19.6299v-35.635
		c0-5.9735,0.7522-10.3964,2.2566-13.2689c2.6902-5.1061,7.9575-7.6601,15.7998-7.6601c0.593,0,1.3682,0.0231,2.3257,0.0672
		c0.9576,0.046,2.0513,0.1362,3.2831,0.2744V63.2192c-0.8673-0.046-1.4257-0.0806-1.6751-0.1036
		C195.2884,63.0926,194.9795,63.081,194.6149,63.081 M135.2476,70.058c-1.1398-9.7131-5.5973-17.8165-13.3725-24.3157
		c-7.7733-6.4972-18.0679-9.7458-30.8801-9.7458c-14.7732,0-26.6529,4.9219-35.635,14.7637
		c-8.9841,9.8437-13.4742,22.9226-13.4742,39.2347c0,16.1319,4.446,28.8443,13.3379,38.141
		c8.5255,9.2507,19.4687,13.8752,32.8297,13.8752c8.1167,0,14.9555-1.7021,20.5202-5.1061
		c3.2371-1.9515,6.8829-5.3114,10.9432-10.0778l2.1204,12.5858h13.9519V85.311h-41.996v16.8245h23.3236
		c-1.0496,6.572-3.83,11.8853-8.3431,15.9418c-4.5151,4.0545-10.3062,6.0827-17.3733,6.0827
		c-7.2053,0-13.6354-2.5712-19.2883-7.7137c-5.6549-5.1425-8.4813-13.9021-8.4813-26.2826c0-12.2864,2.6096-21.4912,7.8328-27.6123
		c5.2193-6.1211,11.8892-9.1817,20.0059-9.1817c4.2407,0,8.0918,0.7521,11.5572,2.2565
		c6.2018,2.7363,10.1009,7.5469,11.6973,14.4317H135.2476z"/>
</g>
</svg>
