<svg width="270" height="296" viewBox="0 0 270 296" fill="none" xmlns="http://www.w3.org/2000/svg">
<g clip-path="url(#clip0_109_2)">
<g opacity="0.1">
<path fill-rule="evenodd" clip-rule="evenodd" d="M270 290.755L264.076 296H263.437L270 290.189V290.755Z" fill="#A67C52"/>
<path fill-rule="evenodd" clip-rule="evenodd" d="M270 290.755L264.077 296H263.437L270 290.189V290.755Z" fill="#A67C52"/>
<path fill-rule="evenodd" clip-rule="evenodd" d="M254.55 255.476L270 278.705V279.47L254.589 256.298L233.229 296H232.749L254.55 255.476Z" fill="#A67C52"/>
<path fill-rule="evenodd" clip-rule="evenodd" d="M233.229 296H232.749L253.932 256.624L200.921 296H200.211L255.206 255.15L233.229 296Z" fill="#A67C52"/>
<path fill-rule="evenodd" clip-rule="evenodd" d="M200.07 266.875L255.463 255.487L200.922 296H200.211L253.675 256.287L200.343 267.251L183.985 296H183.497L200.022 266.959L200.07 266.875Z" fill="#A67C52"/>
<path fill-rule="evenodd" clip-rule="evenodd" d="M183.985 296H183.497L199.589 267.72L156.314 296H155.54L200.824 266.407L183.985 296Z" fill="#A67C52"/>
<path fill-rule="evenodd" clip-rule="evenodd" d="M200.7 266.994L156.315 296H155.54L199.712 267.133L158.73 254.532L132.464 296H131.962L158.545 254.032L200.7 266.994Z" fill="#A67C52"/>
<path fill-rule="evenodd" clip-rule="evenodd" d="M142.514 258.908L159.12 253.916L132.464 296H131.962L158.155 254.649L142.825 259.257L127.048 296H126.587L142.475 258.999L142.514 258.908Z" fill="#A67C52"/>
<path fill-rule="evenodd" clip-rule="evenodd" d="M102.358 296H101.884L83.6367 259.835L80.4978 296H80.0718L83.343 258.314L102.358 296Z" fill="#A67C52"/>
<path fill-rule="evenodd" clip-rule="evenodd" d="M142.991 258.871L127.049 296H126.587L142.348 259.294L83.834 259.286L102.358 296H101.884L83.1459 258.863L142.991 258.871Z" fill="#A67C52"/>
<path fill-rule="evenodd" clip-rule="evenodd" d="M80.4972 296H80.0723L83.226 259.666L49.1339 296H48.5526L83.7537 258.484L80.4972 296Z" fill="#A67C52"/>
<path fill-rule="evenodd" clip-rule="evenodd" d="M30.5373 289.291L84.6192 258.18L49.1333 296H48.5525L82.3604 259.969L30.896 289.573L28.9949 296H28.5531L30.5135 289.372L30.5373 289.291Z" fill="#A67C52"/>
<mask id="mask0_109_2" style="mask-type:luminance" maskUnits="userSpaceOnUse" x="-30" y="-4" width="61" height="300">
<g opacity="0.1">
<path d="M-29.9661 -4H30.9961V296H-29.9661V-4Z" fill="black"/>
</g>
</mask>
<g mask="url(#mask0_109_2)">
<path fill-rule="evenodd" clip-rule="evenodd" d="M-25.817 286.01L30.7288 289.221L30.996 289.236L28.9949 296H28.5525L30.4378 289.629L-24.6537 286.5L-14.2774 296H-14.9045L-25.378 286.411L-25.817 286.01Z" fill="#A67C52"/>
</g>
<path fill-rule="evenodd" clip-rule="evenodd" d="M96.6137 169.7L120.208 210.596L135.937 163.408L96.6137 169.7ZM96.0934 169.646L95.9397 169.379L136.56 162.88L120.312 211.624L96.0934 169.646Z" fill="#A67C52"/>
<path fill-rule="evenodd" clip-rule="evenodd" d="M136.372 163.442L120.775 210.234L155.089 172.802L136.372 163.442ZM136.124 162.845L155.53 172.548L155.781 172.673L119.745 211.986L136.124 162.845Z" fill="#A67C52"/>
<path fill-rule="evenodd" clip-rule="evenodd" d="M72.6622 204.55L119.861 210.843L96.2616 169.937L72.6622 204.55ZM72.2655 204.925L71.9249 204.879L96.2915 169.142L120.658 211.377L72.2655 204.925Z" fill="#A67C52"/>
<path fill-rule="evenodd" clip-rule="evenodd" d="M120.679 210.967L166.345 218.841L155.323 173.174L120.679 210.967ZM120.224 211.319L119.841 211.253L155.279 172.594L155.547 172.301L166.908 219.368L120.224 211.319Z" fill="#A67C52"/>
<path fill-rule="evenodd" clip-rule="evenodd" d="M72.561 204.964L83.6 258.579L119.869 211.272L72.561 204.964ZM72.026 204.465L120.651 210.949L83.6543 259.205L83.3718 259.573L72.026 204.465Z" fill="#A67C52"/>
<path fill-rule="evenodd" clip-rule="evenodd" d="M112.317 115.754L96.5746 169.277L135.93 162.981L112.317 115.754ZM112.214 114.602L136.567 163.307L95.9785 169.802L112.214 114.602Z" fill="#A67C52"/>
<path fill-rule="evenodd" clip-rule="evenodd" d="M136.795 163.18L155.41 172.488L191.088 144.566L136.795 163.18ZM135.702 163.107L193.33 143.349L155.566 172.904L155.46 172.987L135.702 163.107Z" fill="#A67C52"/>
<path fill-rule="evenodd" clip-rule="evenodd" d="M96.4888 118.55V168.068L111.963 115.454L96.4888 118.55ZM96.0651 118.202L112.568 114.902L96.0651 171.011V118.202Z" fill="#A67C52"/>
<path fill-rule="evenodd" clip-rule="evenodd" d="M24.9843 121.757L96.0651 169.144V118.597L24.9843 121.757ZM23.6713 121.39L96.2674 118.164L96.4888 118.154V169.936L23.6713 121.39Z" fill="#A67C52"/>
<path fill-rule="evenodd" clip-rule="evenodd" d="M120.623 211.388L142.668 258.625L166.286 219.26L120.623 211.388ZM119.897 210.833L166.968 218.948L142.826 259.185L142.621 259.527L119.897 210.833Z" fill="#A67C52"/>
<path fill-rule="evenodd" clip-rule="evenodd" d="M166.127 220.35L143.107 258.716L158.454 254.112L166.127 220.35ZM167.127 217.859L158.812 254.447L142.181 259.436L167.127 217.859Z" fill="#A67C52"/>
<path fill-rule="evenodd" clip-rule="evenodd" d="M120.215 211.516L83.9153 258.864H142.311L120.215 211.516ZM120.305 210.704L142.977 259.288H83.0565L120.305 210.704Z" fill="#A67C52"/>
<path fill-rule="evenodd" clip-rule="evenodd" d="M155.725 173.036L166.773 218.804L225.167 191.975L155.725 173.036ZM155.145 172.439L226.404 191.873L166.481 219.405L155.145 172.439Z" fill="#A67C52"/>
<path fill-rule="evenodd" clip-rule="evenodd" d="M166.784 219.369L158.931 253.923L210.761 231.934L166.784 219.369ZM166.47 218.839L212.03 231.856L158.334 254.637L166.47 218.839Z" fill="#A67C52"/>
<path fill-rule="evenodd" clip-rule="evenodd" d="M112.692 115.556L136.355 162.884L191.57 143.953L112.692 115.556ZM111.84 114.799L192.281 143.758L192.848 143.963L136.142 163.405L111.84 114.799Z" fill="#A67C52"/>
<path fill-rule="evenodd" clip-rule="evenodd" d="M18.6871 179.253L72.2204 204.446L95.8379 169.807L18.6871 179.253ZM17.1775 179.012L96.7154 169.272L72.4685 204.834L72.3673 204.983L17.1775 179.012Z" fill="#A67C52"/>
<path fill-rule="evenodd" clip-rule="evenodd" d="M34.3158 238.227L83.1972 258.725L72.1594 205.114L34.3158 238.227ZM33.5255 238.355L72.4277 204.316L83.7746 259.427L33.5255 238.355Z" fill="#A67C52"/>
<path fill-rule="evenodd" clip-rule="evenodd" d="M18.2559 179.519L34.0367 237.908L71.9102 204.769L18.2559 179.519ZM17.7271 179.188L17.6085 178.746L72.3842 204.523L72.6768 204.66L33.8051 238.674L17.7271 179.188Z" fill="#A67C52"/>
<path fill-rule="evenodd" clip-rule="evenodd" d="M167.236 219.058L211.263 231.637L225.415 192.327L167.236 219.058ZM166.019 219.151L226.156 191.52L211.595 231.967L211.528 232.154L166.019 219.151Z" fill="#A67C52"/>
<path fill-rule="evenodd" clip-rule="evenodd" d="M155.898 172.644L225.276 191.565L192.163 144.262L155.898 172.644ZM154.972 172.831L192.255 143.653L226.295 192.282L154.972 172.831Z" fill="#A67C52"/>
<path fill-rule="evenodd" clip-rule="evenodd" d="M121.338 70.2814L96.6667 118.082L112.086 114.998L121.338 70.2814ZM122.379 67.3401L112.445 115.358L95.8865 118.67L122.379 67.3401Z" fill="#A67C52"/>
<path fill-rule="evenodd" clip-rule="evenodd" d="M112.702 115.11L191.951 143.64L180.856 62.8056L112.702 115.11ZM111.829 115.246L181.177 62.0254L192.467 144.275L111.829 115.246Z" fill="#A67C52"/>
<path fill-rule="evenodd" clip-rule="evenodd" d="M62.6989 89.8734L24.9463 121.334L95.7322 118.188L62.6989 89.8734ZM62.565 89.4333L62.7023 89.3186L96.8215 118.564L23.709 121.813L62.565 89.4333Z" fill="#A67C52"/>
<path fill-rule="evenodd" clip-rule="evenodd" d="M24.5 121.943L18.1723 178.89L95.6836 169.399L24.5 121.943ZM24.117 121.55L24.1554 121.204L96.8701 169.68L17.6921 179.375L24.117 121.55Z" fill="#A67C52"/>
<path fill-rule="evenodd" clip-rule="evenodd" d="M63.117 89.674L96.2113 118.041L121.426 69.1876L63.117 89.674ZM62.2842 89.5181L121.788 68.6107L122.292 68.4339L96.465 118.473L96.3424 118.711L62.2842 89.5181Z" fill="#A67C52"/>
<path fill-rule="evenodd" clip-rule="evenodd" d="M159.25 254.248L200.065 266.806L211.054 232.271L159.25 254.248ZM158.015 254.312L211.313 231.701L211.737 231.52L200.342 267.335L158.015 254.312Z" fill="#A67C52"/>
<path fill-rule="evenodd" clip-rule="evenodd" d="M211.519 232.207L200.515 266.79L253.963 255.786L211.519 232.207ZM211.272 231.584L255.168 255.971L199.892 267.351L211.272 231.584Z" fill="#A67C52"/>
<path fill-rule="evenodd" clip-rule="evenodd" d="M181.346 63.2548L192.343 143.375L214.337 110.384L181.346 63.2548ZM180.688 61.5757L214.85 110.379L192.075 144.54L180.688 61.5757Z" fill="#A67C52"/>
<path fill-rule="evenodd" clip-rule="evenodd" d="M192.64 144.204L225.776 191.541L252.6 148.938L192.64 144.204ZM191.778 143.711L253.332 148.571L225.795 192.307L191.778 143.711Z" fill="#A67C52"/>
<path fill-rule="evenodd" clip-rule="evenodd" d="M34.1135 238.602L30.9593 289.075L83.0091 259.106L34.1135 238.602ZM33.7096 238.278L33.7277 237.981L83.9627 259.046L30.8294 289.638L30.4875 289.835L33.7096 238.278Z" fill="#A67C52"/>
<path fill-rule="evenodd" clip-rule="evenodd" d="M75.6227 51.4994L63.0385 89.2531L121.241 68.8028L75.6227 51.4994ZM75.2905 51.1559L75.36 50.9469L122.476 68.8186L62.3628 89.9396L75.2905 51.1559Z" fill="#A67C52"/>
<path fill-rule="evenodd" clip-rule="evenodd" d="M21.3655 96.1695L24.4898 121.163L61.9797 89.9215L21.3655 96.1695ZM20.8943 95.813L63.4215 89.2706L24.1655 121.985L20.8943 95.813Z" fill="#A67C52"/>
<path fill-rule="evenodd" clip-rule="evenodd" d="M20.9775 96.4797L-5.49655 126.068L24.0922 121.396L20.9775 96.4797ZM20.9724 95.8503L21.282 95.5034L24.5634 121.751L-6.60559 126.672L20.9724 95.8503Z" fill="#A67C52"/>
<mask id="mask1_109_2" style="mask-type:luminance" maskUnits="userSpaceOnUse" x="-30" y="62" width="212" height="177">
<g opacity="0.1">
<path d="M-29.9661 62.1237H181.745V238.591H-29.9661V62.1237Z" fill="black"/>
</g>
</mask>
<g mask="url(#mask1_109_2)">
<path fill-rule="evenodd" clip-rule="evenodd" d="M-10.5259 158.319L17.7617 178.748L24.0481 122.172L-10.5259 158.319ZM-11.1683 158.377L24.6074 120.975L18.1029 179.517L-11.1683 158.377Z" fill="#A67C52"/>
</g>
<mask id="mask2_109_2" style="mask-type:luminance" maskUnits="userSpaceOnUse" x="-30" y="62" width="212" height="177">
<g opacity="0.1">
<path d="M-29.9661 62.1237H181.745V238.591H-29.9661V62.1237Z" fill="black"/>
</g>
</mask>
<g mask="url(#mask2_109_2)">
<path fill-rule="evenodd" clip-rule="evenodd" d="M18.3429 179.168L-30 202.72V202.249L17.5209 179.097L-10.7915 158.649L-30 187.919V187.146L-10.9028 158.046L18.3429 179.168Z" fill="#A67C52"/>
</g>
<mask id="mask3_109_2" style="mask-type:luminance" maskUnits="userSpaceOnUse" x="-30" y="62" width="212" height="177">
<g opacity="0.1">
<path d="M-29.9661 62.1237H181.745V238.591H-29.9661V62.1237Z" fill="black"/>
</g>
</mask>
<g mask="url(#mask3_109_2)">
<path fill-rule="evenodd" clip-rule="evenodd" d="M122.035 69.0045L112.588 114.663L180.289 62.7073L122.035 69.0045ZM121.682 68.6169L181.745 62.1237L111.943 115.693L121.682 68.6169Z" fill="#A67C52"/>
</g>
<mask id="mask4_109_2" style="mask-type:luminance" maskUnits="userSpaceOnUse" x="-30" y="62" width="212" height="177">
<g opacity="0.1">
<path d="M-29.9661 62.1237H181.745V238.591H-29.9661V62.1237Z" fill="black"/>
</g>
</mask>
<g mask="url(#mask4_109_2)">
<path fill-rule="evenodd" clip-rule="evenodd" d="M18.0571 178.782L34.1254 238.236L34.2209 238.591L-30 221.464V221.026L33.6203 237.992L17.8068 179.482L-30 213.63V213.11L17.809 178.96L18.0571 178.782Z" fill="#A67C52"/>
</g>
<path fill-rule="evenodd" clip-rule="evenodd" d="M-5.86437 126.555L-10.539 157.719L23.7407 121.881L-5.86437 126.555ZM-6.23725 126.185L24.9147 121.267L-10.6943 158.494L-11.1559 158.977L-6.23725 126.185Z" fill="#A67C52"/>
<path fill-rule="evenodd" clip-rule="evenodd" d="M192.586 143.775L252.41 148.498L214.626 110.714L192.586 143.775ZM191.833 144.14L214.56 110.049L253.523 149.011L191.833 144.14Z" fill="#A67C52"/>
<path fill-rule="evenodd" clip-rule="evenodd" d="M211.681 231.728L249.386 238.012L225.82 192.453L211.681 231.728ZM211.36 232.105L211.11 232.063L225.751 191.396L250.151 238.57L211.36 232.105Z" fill="#A67C52"/>
<path fill-rule="evenodd" clip-rule="evenodd" d="M20.1244 27.7249L62.634 89.1271L75.2289 51.3412L20.1244 27.7249ZM18.938 26.7554L75.5747 51.0283L75.7543 51.1051L62.7673 90.065L18.938 26.7554Z" fill="#A67C52"/>
<path fill-rule="evenodd" clip-rule="evenodd" d="M171.768 18.2446L181.162 62.0814L204.646 47.9904L171.768 18.2446ZM171.079 17.0492L205.142 47.8684L205.354 48.0599L180.872 62.7492L171.079 17.0492Z" fill="#A67C52"/>
<path fill-rule="evenodd" clip-rule="evenodd" d="M181.403 62.5977L214.095 109.301L201.641 61.0412L181.403 62.5977ZM180.63 62.2328L201.963 60.5915L215.091 111.462L180.63 62.2328Z" fill="#A67C52"/>
<path fill-rule="evenodd" clip-rule="evenodd" d="M204.671 48.4706L181.895 62.1356L201.634 60.617L204.671 48.4706ZM205.33 47.5802L201.971 61.0158L180.138 62.6955L205.33 47.5802Z" fill="#A67C52"/>
<path fill-rule="evenodd" clip-rule="evenodd" d="M212.571 232.306L254.228 255.45L249.599 238.477L212.571 232.306ZM210.22 231.485L249.803 238.082L249.937 238.105L254.902 256.308L210.22 231.485Z" fill="#A67C52"/>
<mask id="mask5_109_2" style="mask-type:luminance" maskUnits="userSpaceOnUse" x="-30" y="17" width="212" height="270">
<g opacity="0.1">
<path d="M-29.9661 17.2141H181.273V286.645H-29.9661V17.2141Z" fill="black"/>
</g>
</mask>
<g mask="url(#mask5_109_2)">
<path fill-rule="evenodd" clip-rule="evenodd" d="M171.3 18.0796L122.419 68.5373L180.76 62.2299L171.3 18.0796ZM171.547 17.2141L181.273 62.6006L121.299 69.0842L171.547 17.2141Z" fill="#A67C52"/>
</g>
<mask id="mask6_109_2" style="mask-type:luminance" maskUnits="userSpaceOnUse" x="-30" y="17" width="212" height="270">
<g opacity="0.1">
<path d="M-29.9661 17.2141H181.273V286.645H-29.9661V17.2141Z" fill="black"/>
</g>
</mask>
<g mask="url(#mask6_109_2)">
<path fill-rule="evenodd" clip-rule="evenodd" d="M34.3774 238.194L-25.3791 286.645L-30 262.385V260.12L-25.0955 285.869L33.4638 238.389L-30 221.464V221.026L33.9751 238.086L34.3774 238.194Z" fill="#A67C52"/>
</g>
<mask id="mask7_109_2" style="mask-type:luminance" maskUnits="userSpaceOnUse" x="-30" y="17" width="212" height="270">
<g opacity="0.1">
<path d="M-29.9661 17.2141H181.273V286.645H-29.9661V17.2141Z" fill="black"/>
</g>
</mask>
<g mask="url(#mask7_109_2)">
<path fill-rule="evenodd" clip-rule="evenodd" d="M75.9351 51.165L121.6 68.4859L115.302 22.8215L75.9351 51.165ZM75.0481 51.2814L115.625 22.0661L122.118 69.1356L75.0481 51.2814Z" fill="#A67C52"/>
</g>
<mask id="mask8_109_2" style="mask-type:luminance" maskUnits="userSpaceOnUse" x="-30" y="17" width="212" height="270">
<g opacity="0.1">
<path d="M-29.9661 17.2141H181.273V286.645H-29.9661V17.2141Z" fill="black"/>
</g>
</mask>
<g mask="url(#mask8_109_2)">
<path fill-rule="evenodd" clip-rule="evenodd" d="M18.0554 179.305L-30 213.63V213.11L15.748 180.432L-30 202.72V202.249L17.8395 178.942L18.0554 179.305Z" fill="#A67C52"/>
</g>
<path fill-rule="evenodd" clip-rule="evenodd" d="M-24.6784 286.076L30.5255 289.231L33.6792 238.76L-24.6784 286.076ZM-25.2496 286.468L-25.7965 286.437L34.1623 237.823L30.9216 289.678L-25.2496 286.468Z" fill="#A67C52"/>
<mask id="mask9_109_2" style="mask-type:luminance" maskUnits="userSpaceOnUse" x="-30" y="17" width="202" height="80">
<g opacity="0.1">
<path d="M-29.9661 17.387H171.97V96.3949H-29.9661V17.387Z" fill="black"/>
</g>
</mask>
<g mask="url(#mask9_109_2)">
<path fill-rule="evenodd" clip-rule="evenodd" d="M115.704 22.6356L122.009 68.3508L170.877 17.9062L115.704 22.6356ZM115.254 22.4723L115.223 22.2514L171.97 17.387L121.708 69.2706L115.254 22.4723Z" fill="#A67C52"/>
</g>
<mask id="mask10_109_2" style="mask-type:luminance" maskUnits="userSpaceOnUse" x="-30" y="17" width="202" height="80">
<g opacity="0.1">
<path d="M-29.9661 17.387H171.97V96.3949H-29.9661V17.387Z" fill="black"/>
</g>
</mask>
<g mask="url(#mask10_109_2)">
<path fill-rule="evenodd" clip-rule="evenodd" d="M-2.78136 39.6599L21.5333 96.3949L-30 74.309V73.848L20.7266 95.5881L-2.92486 40.4023L-30 67.478V66.878L-3.00339 39.8814L-2.78136 39.6599Z" fill="#A67C52"/>
</g>
<path fill-rule="evenodd" clip-rule="evenodd" d="M19.7594 27.9418L21.3363 95.7452L62.334 89.4384L19.7594 27.9418ZM19.3029 26.5384L62.8752 89.4757L63.0679 89.7537L20.9238 96.2373L19.3029 26.5384Z" fill="#A67C52"/>
<mask id="mask11_109_2" style="mask-type:luminance" maskUnits="userSpaceOnUse" x="-30" y="26" width="52" height="101">
<g opacity="0.1">
<path d="M-29.9661 26.8797H21.4848V126.738H-29.9661V26.8797Z" fill="black"/>
</g>
</mask>
<g mask="url(#mask11_109_2)">
<path fill-rule="evenodd" clip-rule="evenodd" d="M-2.58414 40.1215L20.8927 94.9L19.3277 27.6006L-2.58414 40.1215ZM-3.12256 39.9407L19.7345 26.8797L21.3672 97.0831L-3.12256 39.9407Z" fill="#A67C52"/>
</g>
<mask id="mask12_109_2" style="mask-type:luminance" maskUnits="userSpaceOnUse" x="-30" y="26" width="52" height="101">
<g opacity="0.1">
<path d="M-29.9661 26.8797H21.4848V126.738H-29.9661V26.8797Z" fill="black"/>
</g>
</mask>
<g mask="url(#mask12_109_2)">
<path fill-rule="evenodd" clip-rule="evenodd" d="M21.4847 95.913L-5.89322 126.511L-6.09548 126.738L-30 81.5853V80.6797L-6.00621 126.002L20.7751 96.0701L-30 74.3091V73.8486L21.213 95.7966L21.4847 95.913Z" fill="#A67C52"/>
</g>
<path fill-rule="evenodd" clip-rule="evenodd" d="M226.081 191.852L255.458 209.178L252.785 149.44L226.081 191.852ZM225.49 191.995L253.147 148.068L255.916 209.941L225.49 191.995Z" fill="#A67C52"/>
<path fill-rule="evenodd" clip-rule="evenodd" d="M226.312 192.48L249.682 237.662L255.449 209.664L226.312 192.48ZM225.259 191.368L255.795 209.377L255.925 209.454L249.976 238.334L249.845 238.9L225.259 191.368Z" fill="#A67C52"/>
<path fill-rule="evenodd" clip-rule="evenodd" d="M255.793 210.099L250.209 237.201L261.743 219.025L255.793 210.099ZM255.582 209.02L262.249 219.02L249.328 239.381L255.582 209.02Z" fill="#A67C52"/>
<path fill-rule="evenodd" clip-rule="evenodd" d="M249.997 238.326L254.534 254.96L261.563 220.101L249.997 238.326ZM249.54 238.257L262.43 217.944L254.596 256.797L249.54 238.257Z" fill="#A67C52"/>
<path fill-rule="evenodd" clip-rule="evenodd" d="M262.002 217.92L270 260.023V262.294L261.99 220.125L254.79 255.835L270 278.703V279.468L254.34 255.923L262.002 217.92Z" fill="#A67C52"/>
<path fill-rule="evenodd" clip-rule="evenodd" d="M252.742 148.475L270 153.115V153.554L253.191 149.034L255.87 208.895L270 187.372V188.145L255.505 210.223L252.742 148.475Z" fill="#A67C52"/>
<path fill-rule="evenodd" clip-rule="evenodd" d="M270 139.214V139.697L253.532 148.687L270 153.115V153.554L252.401 148.821L270 139.214Z" fill="#A67C52"/>
<path fill-rule="evenodd" clip-rule="evenodd" d="M265.088 71.3768L270 80.6497V81.5548L265.307 72.6955L253.244 148.362L270 139.214V139.697L252.689 149.147L265.088 71.3768Z" fill="#A67C52"/>
<path fill-rule="evenodd" clip-rule="evenodd" d="M214.915 110.403L252.823 148.311L264.906 72.5232L214.915 110.403ZM214.272 110.359L265.49 71.5486L253.11 149.198L214.272 110.359Z" fill="#A67C52"/>
<path fill-rule="evenodd" clip-rule="evenodd" d="M202.09 61.0825L214.719 110.02L264.683 72.1599L202.09 61.0825ZM201.515 60.5503L265.712 71.9119L214.721 110.55L214.468 110.742L201.515 60.5503Z" fill="#A67C52"/>
<path fill-rule="evenodd" clip-rule="evenodd" d="M200.706 60.8379L270 45.7881V46.2215L202.898 60.7955L265.126 71.8079L270 66.9339V67.5333L265.27 72.2639L200.706 60.8379Z" fill="#A67C52"/>
<path fill-rule="evenodd" clip-rule="evenodd" d="M201.514 61.0961L204.831 47.8271L270 42.2311V42.6565L205.169 48.2232L202.09 60.5367L270 45.7881V46.2215L201.847 61.0237L201.514 61.0961Z" fill="#A67C52"/>
<path fill-rule="evenodd" clip-rule="evenodd" d="M263.437 -4H264.077L205.62 47.7593L270 42.2311V42.6565L204.38 48.2915L263.437 -4Z" fill="#A67C52"/>
<path fill-rule="evenodd" clip-rule="evenodd" d="M232.749 -4H233.229L205.75 47.078L263.437 -4H264.077L204.25 48.9729L232.749 -4Z" fill="#A67C52"/>
<path fill-rule="evenodd" clip-rule="evenodd" d="M171.09 17.6311L200.211 -4H200.921L171.757 17.6627L204.942 47.687L232.749 -4H233.23L205.059 48.3638L171.09 17.6311Z" fill="#A67C52"/>
<path fill-rule="evenodd" clip-rule="evenodd" d="M183.497 -4H183.985L172.106 16.8763L200.211 -4H200.921L170.742 18.4175L183.497 -4Z" fill="#A67C52"/>
<path fill-rule="evenodd" clip-rule="evenodd" d="M171.553 17.8486L114.643 22.7266L155.54 -4H156.315L116.284 22.1605L171.295 17.4452L183.497 -4H183.985L171.608 17.7514L171.553 17.8486Z" fill="#A67C52"/>
<path fill-rule="evenodd" clip-rule="evenodd" d="M131.962 -4H132.464L116.165 21.7322L155.54 -4H156.315L114.762 23.1548L131.962 -4Z" fill="#A67C52"/>
<path fill-rule="evenodd" clip-rule="evenodd" d="M115.269 22.3599L126.587 -4H127.048L116.707 20.0842L131.962 -4H132.464L115.642 22.5571L115.269 22.3599Z" fill="#A67C52"/>
<path fill-rule="evenodd" clip-rule="evenodd" d="M19.8888 27.2797L-2.95645 40.3345L-21.4084 -4H-20.9496L-2.75024 39.7277L19.1735 27.2006L-14.905 -4H-14.2773L19.6741 27.0842L19.8888 27.2797Z" fill="#A67C52"/>
<path fill-rule="evenodd" clip-rule="evenodd" d="M115.734 22.5096L75.2401 51.665L80.0718 -4H80.4972L75.7424 50.7814L115.193 22.3774L101.884 -4H102.358L115.653 22.348L115.734 22.5096Z" fill="#A67C52"/>
<path fill-rule="evenodd" clip-rule="evenodd" d="M101.884 -4H102.358L115.448 21.9424L126.588 -4H127.048L115.479 22.9446L101.884 -4Z" fill="#A67C52"/>
<path fill-rule="evenodd" clip-rule="evenodd" d="M19.1696 27.3158L48.5526 -4H49.1334L19.8928 27.1644L75.3058 50.913L80.0724 -4H80.4973L75.6775 51.5333L19.1696 27.3158Z" fill="#A67C52"/>
<path fill-rule="evenodd" clip-rule="evenodd" d="M19.0746 28.0362L28.5531 -4H28.9949L19.987 26.4441L48.5526 -4H49.1333L19.6853 27.3847L19.0746 28.0362Z" fill="#A67C52"/>
<path fill-rule="evenodd" clip-rule="evenodd" d="M-14.9044 -4H-14.2773L19.4238 26.8548L28.5527 -4H28.995L19.638 27.6254L-14.9044 -4Z" fill="#A67C52"/>
<path fill-rule="evenodd" clip-rule="evenodd" d="M270 187.146V187.918L256.176 208.983L270 202.249V202.72L254.977 210.04L270 187.146Z" fill="#A67C52"/>
<path fill-rule="evenodd" clip-rule="evenodd" d="M270 213.11V213.63L262.46 219.015L270 221.026V221.464L261.483 219.193L270 213.11Z" fill="#A67C52"/>
<path fill-rule="evenodd" clip-rule="evenodd" d="M270 221.025V221.465L262.243 219.396L270 260.12V262.384L261.701 218.812L270 221.025Z" fill="#A67C52"/>
<path fill-rule="evenodd" clip-rule="evenodd" d="M261.917 219.404L255.266 209.427L270 202.249V202.72L255.888 209.596L262.027 218.805L270 213.11V213.63L262.095 219.276L261.917 219.404Z" fill="#A67C52"/>
<path fill-rule="evenodd" clip-rule="evenodd" d="M270 66.8785V67.478L265.541 71.9373L270 73.848V74.309L264.798 72.0802L270 66.8785Z" fill="#A67C52"/>
<path fill-rule="evenodd" clip-rule="evenodd" d="M270 73.8486V74.309L265.637 72.4396L270 80.6797V81.5853L264.702 71.578L270 73.8486Z" fill="#A67C52"/>
<path fill-rule="evenodd" clip-rule="evenodd" d="M36.3554 238.46C36.3554 239.737 35.3203 240.773 34.0429 240.773C32.7661 240.773 31.7311 239.737 31.7311 238.46C31.7311 237.184 32.7661 236.149 34.0429 236.149C35.3203 236.149 36.3554 237.184 36.3554 238.46Z" fill="#A67C52"/>
<path fill-rule="evenodd" clip-rule="evenodd" d="M33.2719 289.075C33.2719 290.351 32.2368 291.386 30.9594 291.386C29.6826 291.386 28.6476 290.351 28.6476 289.075C28.6476 287.798 29.6826 286.763 30.9594 286.763C32.2368 286.763 33.2719 287.798 33.2719 289.075Z" fill="#A67C52"/>
<path fill-rule="evenodd" clip-rule="evenodd" d="M85.9486 259.27C85.9486 260.547 84.9135 261.582 83.6367 261.582C82.3599 261.582 81.3243 260.547 81.3243 259.27C81.3243 257.993 82.3599 256.958 83.6367 256.958C84.9135 256.958 85.9486 257.993 85.9486 259.27Z" fill="#A67C52"/>
<path fill-rule="evenodd" clip-rule="evenodd" d="M122.624 211.059C122.624 212.336 121.589 213.372 120.312 213.372C119.035 213.372 118 212.336 118 211.059C118 209.782 119.035 208.747 120.312 208.747C121.589 208.747 122.624 209.782 122.624 211.059Z" fill="#A67C52"/>
<path fill-rule="evenodd" clip-rule="evenodd" d="M74.7893 204.845C74.7893 206.121 73.7542 207.157 72.4774 207.157C71.2006 207.157 70.1655 206.121 70.1655 204.845C70.1655 203.568 71.2006 202.533 72.4774 202.533C73.7542 202.533 74.7893 203.568 74.7893 204.845Z" fill="#A67C52"/>
<path fill-rule="evenodd" clip-rule="evenodd" d="M145.223 259.082C145.223 260.359 144.188 261.394 142.911 261.394C141.634 261.394 140.599 260.359 140.599 259.082C140.599 257.805 141.634 256.77 142.911 256.77C144.188 256.77 145.223 257.805 145.223 259.082Z" fill="#A67C52"/>
<path fill-rule="evenodd" clip-rule="evenodd" d="M161.23 254.186C161.23 255.463 160.195 256.498 158.918 256.498C157.641 256.498 156.606 255.463 156.606 254.186C156.606 252.909 157.641 251.873 158.918 251.873C160.195 251.873 161.23 252.909 161.23 254.186Z" fill="#A67C52"/>
<path fill-rule="evenodd" clip-rule="evenodd" d="M20.2825 179.051C20.2825 180.328 19.2475 181.363 17.9706 181.363C16.6938 181.363 15.6582 180.328 15.6582 179.051C15.6582 177.774 16.6938 176.739 17.9706 176.739C19.2475 176.739 20.2825 177.774 20.2825 179.051Z" fill="#A67C52"/>
<path fill-rule="evenodd" clip-rule="evenodd" d="M169.14 218.875C169.14 220.152 168.105 221.187 166.828 221.187C165.551 221.187 164.516 220.152 164.516 218.875C164.516 217.598 165.551 216.563 166.828 216.563C168.105 216.563 169.14 217.598 169.14 218.875Z" fill="#A67C52"/>
<path fill-rule="evenodd" clip-rule="evenodd" d="M26.8119 121.943C26.8119 123.22 25.7768 124.255 24.5 124.255C23.2232 124.255 22.1876 123.22 22.1876 121.943C22.1876 120.666 23.2232 119.631 24.5 119.631C25.7768 119.631 26.8119 120.666 26.8119 121.943Z" fill="#A67C52"/>
<path fill-rule="evenodd" clip-rule="evenodd" d="M23.6724 95.8119C23.6724 97.0887 22.6374 98.1237 21.3606 98.1237C20.0837 98.1237 19.0481 97.0887 19.0481 95.8119C19.0481 94.535 20.0837 93.4995 21.3606 93.4995C22.6374 93.4995 23.6724 94.535 23.6724 95.8119Z" fill="#A67C52"/>
<path fill-rule="evenodd" clip-rule="evenodd" d="M65.082 89.3153C65.082 90.5921 64.047 91.6277 62.7702 91.6277C61.4933 91.6277 60.4583 90.5921 60.4583 89.3153C60.4583 88.0384 61.4933 87.0034 62.7702 87.0034C64.047 87.0034 65.082 88.0384 65.082 89.3153Z" fill="#A67C52"/>
<path fill-rule="evenodd" clip-rule="evenodd" d="M22.1656 27.6384C22.1656 28.9152 21.1306 29.9503 19.8538 29.9503C18.5769 29.9503 17.5419 28.9152 17.5419 27.6384C17.5419 26.3616 18.5769 25.3265 19.8538 25.3265C21.1306 25.3265 22.1656 26.3616 22.1656 27.6384Z" fill="#A67C52"/>
<path fill-rule="evenodd" clip-rule="evenodd" d="M77.9346 50.9345C77.9346 52.2119 76.8995 53.2469 75.6227 53.2469C74.3459 53.2469 73.3108 52.2119 73.3108 50.9345C73.3108 49.6576 74.3459 48.6226 75.6227 48.6226C76.8995 48.6226 77.9346 49.6576 77.9346 50.9345Z" fill="#A67C52"/>
<path fill-rule="evenodd" clip-rule="evenodd" d="M117.79 22.3486C117.79 23.626 116.755 24.661 115.478 24.661C114.201 24.661 113.166 23.626 113.166 22.3486C113.166 21.0717 114.201 20.0367 115.478 20.0367C116.755 20.0367 117.79 21.0717 117.79 22.3486Z" fill="#A67C52"/>
<path fill-rule="evenodd" clip-rule="evenodd" d="M123.912 69.1757C123.912 70.4525 122.877 71.4876 121.6 71.4876C120.323 71.4876 119.288 70.4525 119.288 69.1757C119.288 67.8989 120.323 66.8638 121.6 66.8638C122.877 66.8638 123.912 67.8989 123.912 69.1757Z" fill="#A67C52"/>
<path fill-rule="evenodd" clip-rule="evenodd" d="M174.081 18.2446C174.081 19.5215 173.046 20.5565 171.768 20.5565C170.492 20.5565 169.456 19.5215 169.456 18.2446C169.456 16.9672 170.492 15.9322 171.768 15.9322C173.046 15.9322 174.081 16.9672 174.081 18.2446Z" fill="#A67C52"/>
<path fill-rule="evenodd" clip-rule="evenodd" d="M207.717 47.9774C207.717 49.2542 206.682 50.2893 205.405 50.2893C204.128 50.2893 203.093 49.2542 203.093 47.9774C203.093 46.7006 204.128 45.6655 205.405 45.6655C206.682 45.6655 207.717 46.7006 207.717 47.9774Z" fill="#A67C52"/>
<path fill-rule="evenodd" clip-rule="evenodd" d="M204.84 60.7836C204.84 62.0605 203.805 63.0955 202.528 63.0955C201.251 63.0955 200.216 62.0605 200.216 60.7836C200.216 59.5068 201.251 58.4712 202.528 58.4712C203.805 58.4712 204.84 59.5068 204.84 60.7836Z" fill="#A67C52"/>
<path fill-rule="evenodd" clip-rule="evenodd" d="M183.715 62.5978C183.715 63.8752 182.68 64.9102 181.403 64.9102C180.127 64.9102 179.092 63.8752 179.092 62.5978C179.092 61.3209 180.127 60.2859 181.403 60.2859C182.68 60.2859 183.715 61.3209 183.715 62.5978Z" fill="#A67C52"/>
<path fill-rule="evenodd" clip-rule="evenodd" d="M216.938 110.149C216.938 111.426 215.903 112.461 214.626 112.461C213.349 112.461 212.314 111.426 212.314 110.149C212.314 108.872 213.349 107.837 214.626 107.837C215.903 107.837 216.938 108.872 216.938 110.149Z" fill="#A67C52"/>
<path fill-rule="evenodd" clip-rule="evenodd" d="M267.619 72.6955C267.619 73.9723 266.584 75.0074 265.307 75.0074C264.031 75.0074 262.995 73.9723 262.995 72.6955C262.995 71.4181 264.031 70.3831 265.307 70.3831C266.584 70.3831 267.619 71.4181 267.619 72.6955Z" fill="#A67C52"/>
<path fill-rule="evenodd" clip-rule="evenodd" d="M254.811 150.132C254.088 151.184 252.648 151.451 251.596 150.728C250.543 150.005 250.276 148.566 250.999 147.513C251.723 146.46 253.162 146.194 254.215 146.917C255.267 147.64 255.534 149.08 254.811 150.132Z" fill="#A67C52"/>
<path fill-rule="evenodd" clip-rule="evenodd" d="M194.671 143.834C194.671 145.111 193.635 146.146 192.358 146.146C191.081 146.146 190.046 145.111 190.046 143.834C190.046 142.558 191.081 141.522 192.358 141.522C193.635 141.522 194.671 142.558 194.671 143.834Z" fill="#A67C52"/>
<path fill-rule="evenodd" clip-rule="evenodd" d="M157.759 173.024C157.759 174.301 156.724 175.337 155.447 175.337C154.17 175.337 153.135 174.301 153.135 173.024C153.135 171.747 154.17 170.712 155.447 170.712C156.724 170.712 157.759 171.747 157.759 173.024Z" fill="#A67C52"/>
<path fill-rule="evenodd" clip-rule="evenodd" d="M138.55 163.42C138.55 164.697 137.515 165.732 136.238 165.732C134.961 165.732 133.926 164.697 133.926 163.42C133.926 162.143 134.961 161.108 136.238 161.108C137.515 161.108 138.55 162.143 138.55 163.42Z" fill="#A67C52"/>
<path fill-rule="evenodd" clip-rule="evenodd" d="M227.727 192.327C227.727 193.604 226.692 194.639 225.415 194.639C224.138 194.639 223.103 193.604 223.103 192.327C223.103 191.05 224.138 190.015 225.415 190.015C226.692 190.015 227.727 191.05 227.727 192.327Z" fill="#A67C52"/>
<path fill-rule="evenodd" clip-rule="evenodd" d="M258.211 209.55C258.211 210.827 257.176 211.862 255.899 211.862C254.622 211.862 253.587 210.827 253.587 209.55C253.587 208.273 254.622 207.238 255.899 207.238C257.176 207.238 258.211 208.273 258.211 209.55Z" fill="#A67C52"/>
<path fill-rule="evenodd" clip-rule="evenodd" d="M264.425 219.154C264.425 220.431 263.39 221.467 262.114 221.467C260.837 221.467 259.802 220.431 259.802 219.154C259.802 217.877 260.837 216.842 262.114 216.842C263.39 216.842 264.425 217.877 264.425 219.154Z" fill="#A67C52"/>
<path fill-rule="evenodd" clip-rule="evenodd" d="M213.578 232.149C213.578 233.425 212.543 234.461 211.266 234.461C209.989 234.461 208.954 233.425 208.954 232.149C208.954 230.872 209.989 229.837 211.266 229.837C212.543 229.837 213.578 230.872 213.578 232.149Z" fill="#A67C52"/>
<path fill-rule="evenodd" clip-rule="evenodd" d="M256.695 255.786C256.695 257.063 255.66 258.099 254.382 258.099C253.106 258.099 252.071 257.063 252.071 255.786C252.071 254.51 253.106 253.475 254.382 253.475C255.66 253.475 256.695 254.51 256.695 255.786Z" fill="#A67C52"/>
<path fill-rule="evenodd" clip-rule="evenodd" d="M202.655 267.251C202.655 268.528 201.62 269.563 200.343 269.563C199.066 269.563 198.031 268.528 198.031 267.251C198.031 265.975 199.066 264.94 200.343 264.94C201.62 264.94 202.655 265.975 202.655 267.251Z" fill="#A67C52"/>
<path fill-rule="evenodd" clip-rule="evenodd" d="M98.4052 169.646C98.4052 170.923 97.3702 171.958 96.0934 171.958C94.816 171.958 93.7809 170.923 93.7809 169.646C93.7809 168.368 94.816 167.333 96.0934 167.333C97.3702 167.333 98.4052 168.368 98.4052 169.646Z" fill="#A67C52"/>
<path fill-rule="evenodd" clip-rule="evenodd" d="M114.629 115.754C114.629 117.031 113.594 118.066 112.317 118.066C111.04 118.066 110.005 117.031 110.005 115.754C110.005 114.477 111.04 113.442 112.317 113.442C113.594 113.442 114.629 114.477 114.629 115.754Z" fill="#A67C52"/>
<path fill-rule="evenodd" clip-rule="evenodd" d="M98.8007 118.55C98.8007 119.827 97.7656 120.862 96.4888 120.862C95.2119 120.862 94.1769 119.827 94.1769 118.55C94.1769 117.272 95.2119 116.237 96.4888 116.237C97.7656 116.237 98.8007 117.272 98.8007 118.55Z" fill="#A67C52"/>
</g>
</g>
<defs>
<clipPath id="clip0_109_2">
<rect width="270" height="296" fill="white"/>
</clipPath>
</defs>
</svg>
