<svg xmlns="http://www.w3.org/2000/svg" viewBox="0 0 356.2578 95.2589"><defs><style>.a{fill:#FFF;}</style></defs><title>naturalmente</title><path class="a" d="M238.5283,366.58a5.4194,5.4194,0,0,1-2.3149-.4512,4.4341,4.4341,0,0,1-1.6177-1.2637,5.3078,5.3078,0,0,1-.9551-1.92,9.5934,9.5934,0,0,1-.0068-4.8047,5.2918,5.2918,0,0,1,.9492-1.9219,4.4376,4.4376,0,0,1,1.6138-1.27,5.4247,5.4247,0,0,1,2.314-.457,5.4817,5.4817,0,0,1,2.3149.45,4.3328,4.3328,0,0,1,1.6265,1.2646,5.5181,5.5181,0,0,1,.9551,1.92,9.3264,9.3264,0,0,1,.0068,4.8027,5.5277,5.5277,0,0,1-.9492,1.9238,4.3407,4.3407,0,0,1-1.6226,1.2686A5.5028,5.5028,0,0,1,238.5283,366.58Zm-.0015-.9785a4.1658,4.1658,0,0,0,1.7637-.3516,3.298,3.298,0,0,0,1.2476-1.0068,4.445,4.445,0,0,0,.74-1.5986,9.2588,9.2588,0,0,0-.0059-4.2285,4.4652,4.4652,0,0,0-.7446-1.5967,3.2939,3.2939,0,0,0-1.25-1.0029,4.13,4.13,0,0,0-1.7646-.3457,4.1782,4.1782,0,0,0-1.7725.3516,3.2578,3.2578,0,0,0-1.2563,1.0059,4.45,4.45,0,0,0-.74,1.6,9.25,9.25,0,0,0,.0059,4.2266,4.4461,4.4461,0,0,0,.7446,1.5977,3.2719,3.2719,0,0,0,1.2593,1.002A4.2013,4.2013,0,0,0,238.5269,365.6016Z" transform="translate(-233.3315 -281.3821)"/><path class="a" d="M255.04,358.084a3.2892,3.2892,0,0,1-.7568,2.1836,3.9263,3.9263,0,0,1-2.0679,1.2617l2.89,4.8691-1.3276.002-2.8022-4.748-2.7427.0039.0073,4.752-1.1875.002-.0176-11.7734,4.1572-.0059a4.5508,4.5508,0,0,1,1.625.2676,3.5524,3.5524,0,0,1,1.2061.7324,3.1585,3.1585,0,0,1,.7529,1.09A3.517,3.517,0,0,1,255.04,358.084Zm-1.2051.002a2.2308,2.2308,0,0,0-.6753-1.7109,2.7716,2.7716,0,0,0-1.9658-.627l-2.97.0049.0068,4.8037,2.8647-.0039a2.8862,2.8862,0,0,0,2.0078-.668A2.3037,2.3037,0,0,0,253.835,358.0859Z" transform="translate(-233.3315 -281.3821)"/><path class="a" d="M263.49,355.5371a5.5116,5.5116,0,0,0-1.8857.3086,3.7249,3.7249,0,0,0-1.4312.9277,4.1821,4.1821,0,0,0-.915,1.5654,6.8708,6.8708,0,0,0-.32,2.2188,7.0067,7.0067,0,0,0,.2739,2.0088,4.8242,4.8242,0,0,0,.7622,1.5527,3.4425,3.4425,0,0,0,1.1807,1.0029,3.2254,3.2254,0,0,0,1.5112.3564,3.6619,3.6619,0,0,0,1.2051-.1943,2.6482,2.6482,0,0,0,1.6313-1.5654,3.6687,3.6687,0,0,0,.2334-1.3711l-.0024-1.3633-2.4453.0039-.0015-1.0312,3.5811-.0049.01,6.4287-.9082.001-.2646-1.6943a3.5432,3.5432,0,0,1-1.1772,1.32,3.3559,3.3559,0,0,1-1.9473.5361,4.6833,4.6833,0,0,1-2.0352-.4248,4.27,4.27,0,0,1-1.522-1.2031,5.5252,5.5252,0,0,1-.9541-1.8848,8.5867,8.5867,0,0,1-.3359-2.4717,7.8763,7.8763,0,0,1,.3892-2.585,5.24,5.24,0,0,1,1.1235-1.915,4.83,4.83,0,0,1,1.7979-1.19,6.6622,6.6622,0,0,1,2.41-.4141,6.8466,6.8466,0,0,1,1.5981.1641,8.08,8.08,0,0,1,1.3018.4258c-.0459.1631-.0986.3262-.1562.4883-.0581.1641-.11.3262-.1567.49A6.095,6.095,0,0,0,263.49,355.5371Z" transform="translate(-233.3315 -281.3821)"/><path class="a" d="M277.2314,363.0986l-5.188.0068-1.1831,3.27-1.2227.002,4.3667-11.7812,1.24-.001q1.1052,2.9678,2.2012,5.8838t2.2012,5.8828l-1.2231.002Zm-4.7876-1.0586,4.3843-.0068-1.3506-3.6133c-.1289-.4082-.2661-.8437-.4121-1.31s-.2842-.8955-.4126-1.292q-.2263.5771-.4521,1.293-.2263.7178-.4175,1.3105Z" transform="translate(-233.3315 -281.3821)"/><path class="a" d="M288.916,362.5918q.3684.6123.6655,1.1611t.4731.8994l.1226-.0361q-.0542-.6108-.0806-1.2041t-.0283-1.3281l-.0112-7.5117,1.2056-.002.0176,11.7734-1.3276.002-5.0078-8.01a9,9,0,0,1-.5776-.9687q-.2988-.5669-.5083-1.0039v.0352a.0519.0519,0,0,0-.0171-.0352.0445.0445,0,0,1-.0181-.0342h-.14q.0535.6108.0806,1.1963t.0278,1.3184l.0112,7.5117-1.2051.002-.0176-11.7734,1.3276-.002Z" transform="translate(-233.3315 -281.3821)"/><path class="a" d="M296.5029,366.3359l-1.2056.002-.0176-11.7734,1.2056-.002Z" transform="translate(-233.3315 -281.3821)"/><path class="a" d="M305.5,355.459a4.1073,4.1073,0,0,0-3.2207,1.2969,6.44,6.44,0,0,0-.0068,7.3535,4.0762,4.0762,0,0,0,3.2246,1.2881,6.9242,6.9242,0,0,0,1.354-.1328,5.8869,5.8869,0,0,0,1.2129-.3779l.2983.9785a6.3813,6.3813,0,0,1-1.3179.4551,7.0152,7.0152,0,0,1-1.5635.16,6.3667,6.3667,0,0,1-2.4722-.4326,4.5851,4.5851,0,0,1-1.7222-1.2207,5.0571,5.0571,0,0,1-1.0161-1.9023,8.6886,8.6886,0,0,1-.3354-2.4795,7.7948,7.7948,0,0,1,.3633-2.4463,5.3432,5.3432,0,0,1,1.0713-1.915,4.895,4.895,0,0,1,1.7363-1.2422,5.9362,5.9362,0,0,1,2.375-.4492,7.3064,7.3064,0,0,1,1.52.1367,6.1193,6.1193,0,0,1,1.2236.4c-.0464.1641-.0957.3262-.1475.49-.0527.1621-.1021.3262-.1484.4893A5.8943,5.8943,0,0,0,305.5,355.459Z" transform="translate(-233.3315 -281.3821)"/><path class="a" d="M322.0942,355.4336a4.1105,4.1105,0,0,0-3.2207,1.2969,6.4412,6.4412,0,0,0-.0068,7.3545,4.0794,4.0794,0,0,0,3.2246,1.2881,6.9242,6.9242,0,0,0,1.354-.1328,5.9462,5.9462,0,0,0,1.2129-.377l.2983.9766a6.3865,6.3865,0,0,1-1.3179.457,7.0766,7.0766,0,0,1-1.5635.1592,6.3848,6.3848,0,0,1-2.4722-.4326,4.5959,4.5959,0,0,1-1.7222-1.2207,5.0571,5.0571,0,0,1-1.0161-1.9023,8.6955,8.6955,0,0,1-.3354-2.48,7.7885,7.7885,0,0,1,.3633-2.4453,5.335,5.335,0,0,1,1.0713-1.915,4.883,4.883,0,0,1,1.7363-1.2422,5.9362,5.9362,0,0,1,2.375-.4492,7.235,7.235,0,0,1,1.52.1377,6.1173,6.1173,0,0,1,1.2236.3994q-.07.2461-.1475.4893c-.0527.1641-.1021.3262-.1484.49A5.8939,5.8939,0,0,0,322.0942,355.4336Z" transform="translate(-233.3315 -281.3821)"/><path class="a" d="M332.748,366.4395a5.4051,5.4051,0,0,1-2.3149-.45,4.4365,4.4365,0,0,1-1.6177-1.2646,5.2843,5.2843,0,0,1-.9551-1.92,9.5857,9.5857,0,0,1-.0068-4.8027,5.3087,5.3087,0,0,1,.9492-1.9238,4.4455,4.4455,0,0,1,1.6138-1.2686,5.4244,5.4244,0,0,1,2.314-.458,5.5269,5.5269,0,0,1,2.3149.4512,4.35,4.35,0,0,1,1.6265,1.2637,5.5228,5.5228,0,0,1,.9551,1.9209,9.33,9.33,0,0,1,.0068,4.8037,5.5013,5.5013,0,0,1-.9492,1.9219,4.3235,4.3235,0,0,1-1.6226,1.27A5.4729,5.4729,0,0,1,332.748,366.4395Zm-.0015-.9775a4.1362,4.1362,0,0,0,1.7637-.3525,3.2681,3.2681,0,0,0,1.2476-1.0059,4.45,4.45,0,0,0,.74-1.6,9.25,9.25,0,0,0-.0059-4.2266,4.4543,4.4543,0,0,0-.7446-1.5977,3.3007,3.3007,0,0,0-1.25-1.002,4.1593,4.1593,0,0,0-1.7646-.3477,4.2231,4.2231,0,0,0-1.7725.3525,3.26,3.26,0,0,0-1.2563,1.0068,4.4369,4.4369,0,0,0-.74,1.5986,9.2546,9.2546,0,0,0,.0059,4.2275,4.4539,4.4539,0,0,0,.7446,1.5977,3.2809,3.2809,0,0,0,1.2593,1.002A4.2014,4.2014,0,0,0,332.7466,365.4619Z" transform="translate(-233.3315 -281.3821)"/><path class="a" d="M344.1367,366.4238c-.4077,0-.7749-.0137-1.1006-.043a6.6165,6.6165,0,0,1-1.6074-.3291,3.5657,3.5657,0,0,1-.6118-.2705c.0464-.1621.0981-.3252.1567-.4883s.11-.32.1563-.4727a5.9473,5.9473,0,0,0,1.2236.4,7.4249,7.4249,0,0,0,1.6245.1543,5.6005,5.6005,0,0,0,1.2051-.123,2.6756,2.6756,0,0,0,.9517-.3945,1.9748,1.9748,0,0,0,.6187-.6914,2.05,2.05,0,0,0,.2256-.9961,1.813,1.813,0,0,0-.2368-.9609,2.2229,2.2229,0,0,0-.6387-.6621,3.8208,3.8208,0,0,0-.9268-.4609c-.3491-.1221-.7168-.2461-1.1011-.375q-.5413-.1729-1.127-.4258a4.8157,4.8157,0,0,1-1.0664-.627,3.0186,3.0186,0,0,1-.7876-.9258,2.7063,2.7063,0,0,1-.3076-1.335,3.3635,3.3635,0,0,1,.2163-1.2148,2.3759,2.3759,0,0,1,.6885-.97,3.4706,3.4706,0,0,1,1.1958-.64,5.7349,5.7349,0,0,1,1.7554-.2393,7.5,7.5,0,0,1,1.5371.1465,5.35,5.35,0,0,1,1.293.4443c-.0459.1631-.1016.3262-.1646.4893s-.1191.32-.1655.4717a4.8592,4.8592,0,0,0-1.1533-.374,6.8663,6.8663,0,0,0-1.3452-.1289,3.1069,3.1069,0,0,0-2.0776.5625,1.83,1.83,0,0,0-.627,1.4336,1.7459,1.7459,0,0,0,.22.9072,2.0593,2.0593,0,0,0,.5864.6279,3.92,3.92,0,0,0,.8647.4531q.498.19,1.0576.3828.6284.208,1.25.4609a4.6085,4.6085,0,0,1,1.11.6357,3.0152,3.0152,0,0,1,.7964.9512,2.8943,2.8943,0,0,1,.3076,1.3877,3.1819,3.1819,0,0,1-.2944,1.4238,2.7768,2.7768,0,0,1-.8281,1.0059,3.7067,3.7067,0,0,1-1.2656.6055A6.1591,6.1591,0,0,1,344.1367,366.4238Z" transform="translate(-233.3315 -281.3821)"/><path class="a" d="M356.3086,364.3086l-2.6108-5.707q-.2454-.542-.4736-1.0742c-.1519-.3545-.3037-.7715-.4556-1.248l-.1572.0176q.0879.82.0981,1.5723.01.75.0107,1.1875l.0107,7.1973-1.17.001-.0176-11.7734,1.45-.002,2.874,6.3369c.0938.1973.1934.4189.2979.6631s.2075.4893.3071.7334.19.4746.272.6895.146.3984.1924.55c.0464-.1279.1157-.3.2095-.5156s.1938-.4482.3047-.6982c.11-.252.2173-.502.3213-.752s.2031-.4746.2964-.6738l2.855-6.3447,1.45-.002.0176,11.7734-1.188.001-.0107-7.1963q-.0007-.4365.0156-1.1787a15.0707,15.0707,0,0,1,.12-1.5635l-.14-.0352q-.2439.7163-.479,1.25t-.478,1.0752l-2.5947,5.7148Z" transform="translate(-233.3315 -281.3821)"/><path class="a" d="M366.3208,354.46l7.0571-.0107.0015,1.083-5.8521.0088.0063,4.07,5.5024-.0078.0015,1.082-5.5024.0088.0068,4.4541,5.9565-.0088.0015,1.083-7.1616.0107Z" transform="translate(-233.3315 -281.3821)"/><path class="a" d="M380.5234,355.5391l.0161,10.6738-1.2051.001-.0161-10.6729q-.8914.0015-1.8169.0117t-1.8159.0117l-.002-1.1191,8.4717-.0117.002,1.1182Z" transform="translate(-233.3315 -281.3821)"/><path class="a" d="M388.19,366.2012l-1.2056.002-.0176-11.7734,1.2056-.002Z" transform="translate(-233.3315 -281.3821)"/><path class="a" d="M397.187,355.3223a4.1079,4.1079,0,0,0-3.2207,1.2979,6.4412,6.4412,0,0,0-.0068,7.3545,4.0788,4.0788,0,0,0,3.2246,1.2871,6.85,6.85,0,0,0,1.354-.1328,5.9462,5.9462,0,0,0,1.2129-.377l.2983.9766a6.3865,6.3865,0,0,1-1.3179.457,7.0766,7.0766,0,0,1-1.5635.1592,6.3848,6.3848,0,0,1-2.4722-.4326,4.5851,4.5851,0,0,1-1.7222-1.2207,5.0571,5.0571,0,0,1-1.0161-1.9023,8.6907,8.6907,0,0,1-.3354-2.48,7.7929,7.7929,0,0,1,.3633-2.4453,5.3223,5.3223,0,0,1,1.0713-1.9141,4.8733,4.8733,0,0,1,1.7363-1.2432,5.9362,5.9362,0,0,1,2.375-.4492,7.3008,7.3008,0,0,1,1.52.1377,6.0575,6.0575,0,0,1,1.2236.4q-.07.2446-.1475.4883-.0791.2461-.1484.49A5.91,5.91,0,0,0,397.187,355.3223Z" transform="translate(-233.3315 -281.3821)"/><path class="a" d="M233.4835,330.0387c-.0082-5.9239,1.4913-9.9054,4.4566-11.8344a20.7384,20.7384,0,0,1,10.4441-3.341,20.0812,20.0812,0,0,1,10.72,3.0409c3.0993,1.9223,4.6758,5.99,4.6848,12.0888l.0307,20.7521-3.8139.006a3.4757,3.4757,0,0,1-3.6792-3.6687l-.0284-19.0379a6.8,6.8,0,0,0-2.467-5.76,8.4315,8.4315,0,0,0-5.1921-1.7532,8.16,8.16,0,0,0-5.1645,1.7786c-1.5743,1.2429-2.37,3.1793-2.366,5.7571l.0337,22.7118-7.6277.0112Z" transform="translate(-233.3315 -281.3821)"/><path class="a" d="M279.3755,350.79a13.663,13.663,0,0,1-8.1635-2.5126c-2.2433-1.6147-3.3357-4.2785-3.3417-8.1433-.0052-3.5871.9682-6.05,2.9758-7.5289a18.7324,18.7324,0,0,1,8.1919-3.1614,9.4242,9.4242,0,0,0,1.816-.2357c.6091-.1317,1.3267-.2447,2.1325-.336,4.7357-.6525,7.1219-2.2425,7.1174-4.729a3.7342,3.7342,0,0,0-2.9586-3.7682,15.5746,15.5746,0,0,0-4.2785-.6667,11.3773,11.3773,0,0,0-3.8827.63,4.8271,4.8271,0,0,0-2.5164,2.039l-7.4264.01a9.58,9.58,0,0,1,3.3043-5.2236c2.3121-1.9746,5.7-2.9758,10.079-2.9833,5.01,0,8.7411.8268,11.1527,2.4565a7.8922,7.8922,0,0,1,3.5931,6.9348l.0195,12.7383c.0045,3.5018-.6158,6.2487-1.8452,8.1642a11.4014,11.4014,0,0,1-4.396,4.173,16.2774,16.2774,0,0,1-5.8558,1.79,55.577,55.577,0,0,1-5.695.3524Zm9.3083-19.3574a25.5232,25.5232,0,0,1-5.2251,1.7427l-3.1958.7a9.2855,9.2855,0,0,0-4.173,2.1191l-.0846.0846-.0643.101a6.79,6.79,0,0,0-1.1433,3.6642,5.6029,5.6029,0,0,0,1.5833,4.1251,6.3583,6.3583,0,0,0,4.3938,1.4314,8.8264,8.8264,0,0,0,9.4864-9.4991l-.0067-5.2572Z" transform="translate(-233.3315 -281.3821)"/><path class="a" d="M333.0381,350.79a21.5178,21.5178,0,0,1-10.4464-3.1816c-2.9593-1.8265-4.4648-5.8-4.4738-11.809l-.0307-20.7514,7.6277-.0112.0337,22.711c.003,2.5807.8051,4.515,2.3824,5.75a8.1434,8.1434,0,0,0,5.1405,1.7636,8.442,8.442,0,0,0,5.2168-1.7689,6.7985,6.7985,0,0,0,2.45-5.7676l-.0284-19.0379a3.6294,3.6294,0,0,1,1.0274-2.6129,3.4551,3.4551,0,0,1,2.6413-1.0663l3.8139-.0052.0307,20.7514c.009,6.1851-1.5489,10.2533-4.631,12.0926A20.8114,20.8114,0,0,1,333.0381,350.79Z" transform="translate(-233.3315 -281.3821)"/><path class="a" d="M352.13,332.3015a22.1145,22.1145,0,0,1,1.5077-8.7389,14.1875,14.1875,0,0,1,4.0832-5.5393,16.302,16.302,0,0,1,5.8341-2.889,26.7106,26.7106,0,0,1,7.0605-.9518l.3135-.0007.0112,7.7669-2.1333.0037c-2.9915.0037-5.2737.7737-6.7837,2.2874s-2.2725,3.846-2.2672,6.93l.0269,19.6391-7.6277.0112Z" transform="translate(-233.3315 -281.3821)"/><path class="a" d="M384.7792,350.79a13.6609,13.6609,0,0,1-8.16-2.5119c-2.2425-1.614-3.335-4.2778-3.3417-8.1433-.0045-3.5879.969-6.05,2.9758-7.5282a18.7237,18.7237,0,0,1,8.1919-3.1621,9.4239,9.4239,0,0,0,1.8168-.2357c.6038-.1309,1.3207-.2439,2.1318-.336,4.735-.6525,7.1211-2.2433,7.1182-4.73a3.7333,3.7333,0,0,0-2.9593-3.7675,15.5128,15.5128,0,0,0-4.2718-.6667,11.3777,11.3777,0,0,0-3.8894.63,4.8278,4.8278,0,0,0-2.5164,2.039l-7.4264.01a9.5878,9.5878,0,0,1,3.3043-5.2243c2.3121-1.9746,5.7-2.9758,10.079-2.9825,5.0111,0,8.7419.8268,11.1527,2.4558a7.8982,7.8982,0,0,1,3.5939,6.9356l.0187,12.7383c.0045,3.5018-.6158,6.2487-1.8452,8.1642a11.3935,11.3935,0,0,1-4.3953,4.1715,16.2541,16.2541,0,0,1-5.8566,1.7906,55.1516,55.1516,0,0,1-5.6935.3524Zm9.312-19.3566a25.5115,25.5115,0,0,1-5.2251,1.7427l-3.195.6989a9.2916,9.2916,0,0,0-4.1738,2.12l-.0846.0846-.0643.101a6.79,6.79,0,0,0-1.1433,3.6635,5.6058,5.6058,0,0,0,1.5833,4.1259,6.3649,6.3649,0,0,0,4.3945,1.4307,8.8244,8.8244,0,0,0,9.4864-9.4984l-.0075-5.2565Z" transform="translate(-233.3315 -281.3821)"/><path class="a" d="M301.82,304.8068l3.9538-.006a3.6331,3.6331,0,0,1,2.6137,1.0281,3.2906,3.2906,0,0,1,1.0655,2.5007l.01,7.3254,5.2138-.0075.0015.874a3.4537,3.4537,0,0,1-1.058,2.6443,3.6211,3.6211,0,0,1-2.61,1.0348l-1.54.0022.0449,30.5759-7.627.0112Z" transform="translate(-233.3315 -281.3821)"/><path class="a" d="M545.7034,304.8068l3.9538-.006a3.6326,3.6326,0,0,1,2.6129,1.0281,3.2884,3.2884,0,0,1,1.0655,2.5007l.0112,7.3254,5.2131-.0075.0015.874a3.4537,3.4537,0,0,1-1.058,2.6443,3.6211,3.6211,0,0,1-2.61,1.0348l-1.5407.0022.0464,30.5759-7.6277.0112Z" transform="translate(-233.3315 -281.3821)"/><path class="a" d="M418.0571,330.0387c-.009-5.9239,1.4905-9.9054,4.4566-11.8337a20.7392,20.7392,0,0,1,10.4441-3.3417,27.4312,27.4312,0,0,1,6.0092.6652,12.2266,12.2266,0,0,1,5.1472,2.5665l.7093.59.6966-.6046a11.3659,11.3659,0,0,1,4.5374-2.3682,26.8125,26.8125,0,0,1,5.7159-.8822,20.0825,20.0825,0,0,1,10.721,3.0409c3.0985,1.9223,4.6751,5.99,4.6841,12.09v20.7514l-3.7824.006a3.4768,3.4768,0,0,1-3.6792-3.6687l-.0284-19.0379a6.8013,6.8013,0,0,0-2.4662-5.76,8.5793,8.5793,0,0,0-10.4135.015,6.8038,6.8038,0,0,0-2.4505,5.7676l.0337,22.7118-7.487.0112-.0337-22.711a6.8053,6.8053,0,0,0-2.4662-5.76,8.4424,8.4424,0,0,0-5.1974-1.7539,8.1512,8.1512,0,0,0-5.16,1.7794c-1.5743,1.2406-2.37,3.1771-2.3667,5.7563l.0337,22.7118-7.627.0112Z" transform="translate(-233.3315 -281.3821)"/><path class="a" d="M491.0179,350.79c-5.0178,0-8.8152-1.5661-11.6084-4.7866-2.8037-3.1449-4.2254-7.75-4.2351-13.7013-.0082-5.677,1.3566-10.1508,4.057-13.2965,2.79-3.2347,6.5944-4.8113,11.6286-4.82,5.2767,0,9.3764,1.5713,12.225,4.67,2.7805,3.207,4.2052,7.8163,4.2142,13.6781l.0015,1.4344-24.3916.0359.0367,1.12c.1055,3.15.9136,5.5528,2.4026,7.1421a7.6326,7.6326,0,0,0,6.24,2.5755,9.1013,9.1013,0,0,0,4.5307-1.0827,3.052,3.052,0,0,0,1.082-.7146l.95-.9533.0793-.2424v.0022a4.9149,4.9149,0,0,1,.68-.6046,3.1811,3.1811,0,0,1,1.9268-.4781l5.5378-.0082a13.83,13.83,0,0,1-5.0358,6.9954,16.8577,16.8577,0,0,1-10.2855,3.0342Zm.1309-30.656a7.8985,7.8985,0,0,0-5.8035,2.2859,9.101,9.101,0,0,0-2.4079,6.3295l-.0412,1.1276,16.5761-.0247-.089-1.1665a10.1445,10.1445,0,0,0-2.2537-6.2524,7.7779,7.7779,0,0,0-5.96-2.2994h-.021Z" transform="translate(-233.3315 -281.3821)"/><path class="a" d="M511.0061,330.0387c-.009-5.9232,1.4905-9.9047,4.4566-11.8337a20.7462,20.7462,0,0,1,10.4441-3.3417,20.0932,20.0932,0,0,1,10.72,3.0417c3.0993,1.9215,4.6758,5.989,4.6848,12.0888l.0307,20.7514-3.8139.006a3.4757,3.4757,0,0,1-3.6792-3.6679l-.0284-19.0379a6.8037,6.8037,0,0,0-2.4662-5.7608,8.4536,8.4536,0,0,0-5.1966-1.7532,8.156,8.156,0,0,0-5.1607,1.7794c-1.5743,1.2406-2.37,3.1778-2.366,5.7571l.0337,22.711-7.6277.0112Z" transform="translate(-233.3315 -281.3821)"/><path class="a" d="M573.31,350.79c-5.0208,0-8.8189-1.5661-11.6114-4.7873-2.8052-3.1457-4.2269-7.7512-4.2359-13.7013-.0082-5.6778,1.3566-10.1516,4.057-13.2957,2.7895-3.2355,6.5936-4.812,11.6286-4.82,5.2767,0,9.3764,1.5713,12.225,4.6691,2.7805,3.2078,4.2052,7.817,4.2142,13.6781l.0015,1.4344-24.3916.0359.0367,1.12c.1055,3.15.9136,5.5528,2.4026,7.1421a7.6273,7.6273,0,0,0,6.2375,2.5755,9.1,9.1,0,0,0,4.5329-1.082,3.0553,3.0553,0,0,0,1.08-.7131l.9533-.9548.0793-.2432v.0022a4.98,4.98,0,0,1,.68-.6046,3.1842,3.1842,0,0,1,1.9275-.4781l5.5371-.0075a13.8327,13.8327,0,0,1-5.0365,6.9947,16.8606,16.8606,0,0,1-10.2848,3.0349Zm.1272-30.6568a7.8931,7.8931,0,0,0-5.8042,2.2867,9.1006,9.1006,0,0,0-2.4071,6.3287l-.0412,1.1276,16.5761-.0247-.089-1.1665a10.144,10.144,0,0,0-2.2537-6.2517,7.7824,7.7824,0,0,0-5.96-2.3h-.021Z" transform="translate(-233.3315 -281.3821)"/><path class="a" d="M417.2645,368.3679c-1.8232-.6693-3.456-1.3071-3.456-8.515v-3.112h.02v-71.83a3.3024,3.3024,0,0,0-1.2512-2.5007,4.0482,4.0482,0,0,0-2.8009-1.0281l-3.654.006v78.7372c0,6.1978,1.12,10.9515,4.0058,13.7454a10.63,10.63,0,0,0,5.0988,2.7034,4.16,4.16,0,0,0,4.0576-1.583A4.2589,4.2589,0,0,0,417.2645,368.3679Z" transform="translate(-233.3315 -281.3821)"/></svg>