<svg xmlns="http://www.w3.org/2000/svg" viewBox="0 0 659.8894 557.3706"><defs><style>.a,.b{fill:#923d15;}.a{fill-rule:evenodd;}</style></defs><title>basic</title><path class="a" d="M512.0013,321.8142c-9.2241,10.7146-29.7438,36.0006-20.5214,56.7861,8.7609,20.1432,16.8309,25.9283,20.5212,27.6432,3.6885-1.7149,11.7584-7.5,20.52-27.6431,9.2225-20.7854-11.2972-46.0715-20.52-56.7861Zm-62.0239,72.8571c12.6813,7.5,40.811,25.7147,39.1973,48.4287-1.6153,21.6429-7.3789,29.7852-10.3763,32.5709-4.15-.6423-14.0651-3.8569-29.2823-20.3566-15.9086-17.3572-4.8426-47.5711.4612-60.6429ZM220.7917,482.7419c11.2976,12.4295,38.2735,39.8575,66.1737,34.7147,26.7448-4.9279,35.7373-12.4279,38.7347-16.0711-1.3837-4.5006-6.9161-14.5714-29.7437-28.2854-23.7486-14.3581-59.7171,1.9282-75.1646,9.6419ZM471.1894,659.3141c20.7513-34.928,25.5939-86.1423-21.4438-113.1433-41.732-24.2135-106.9831-28.7142-144.3354-12.2145a107.1494,107.1494,0,0,0-38.9663,29.358c3.2273,3.6432,8.3,11.9991,10.3762,30.8575,2.5362,22.714-24.9025,42-37.1227,49.9283h0c-5.9948-12.8581-18.2146-42.8569-2.9973-60.6429,11.7587-13.714,20.29-18.8568,25.3623-20.5717,10.3766-16.286,23.7487-29.7851,40.12-38.7863,27.4371-14.9988,70.7848-14.7851,110.4417-4.07-4.841-1.7146-9.6836-3.2146-14.5262-4.7143-62.2534-17.3572-99.1444-38.7865-110.903-106.072-2.0751-11.9991-1.8452-24.2149-2.5362-36.4277-4.3815-2.3572-12.22-8.5726-21.4423-25.2861-11.2988-20.3584,6.9162-47.3575,15.2173-59.1432,10.6062,10.0709,33.4325,33.8572,26.2848,55.7135-6.6875,19.9295-14.0648,26.7857-17.7536,29.1429,2.0748,11.572,3.6888,23.3577,6.6861,34.7146,17.0624,63,47.9586,79.715,108.1372,94.7151,43.1158,10.7146,82.3119,33.2147,97.07,72.4284-5.9951-35.1432,5.7637-47.1423-30.2051-71.1423-46.8062-31.0727-83.9271-99.2157-72.3983-143.5723,4.6114-18.4282,15.6788-35.1431,30.6648-49.9282-1.8436-4.7143-3.9184-15.8575,2.7678-38.1426,7.8384-25.5012,46.3435-35.3583,63.406-39,.2312,16.2848-.4615,53.3563-25.1312,66.6417-19.83,10.7146-31.5886,12.4294-37.8137,12.0005a94.945,94.945,0,0,0-22.8261,48.2149c-6.6878,40.7134,25.5921,97.2858,65.942,126,18.215,12.8568,24.21,16.9286,24.9011,6.6429,2.3064-30.4289,2.9975-72.6435-19.3673-96.4284A148.1633,148.1633,0,0,0,455.05,376.243s42.1935,7.0715,56.9511,61.929c14.7562-54.8575,56.95-61.9288,56.95-61.9288a148.1788,148.1788,0,0,0-23.749,20.1431c-22.3646,23.7848-21.6736,65.9994-19.3673,96.4283.691,10.2857,6.6862,6.214,24.9011-6.6428,40.35-28.714,72.63-85.2863,65.944-126a94.9479,94.9479,0,0,0-22.8279-48.215c-6.2247.4289-17.9834-1.286-37.8121-12.0006-24.6712-13.2855-25.3622-50.3569-25.1323-66.6418,17.0624,3.6417,55.5672,13.4989,63.4058,39,6.6878,22.2851,4.6126,33.4283,2.7674,38.1426,14.9876,14.7852,26.0536,31.5,30.6663,49.9283,11.5271,44.3566-25.594,112.4995-72.4,143.5721-35.9685,24-24.21,35.9991-30.2034,71.1422,14.7562-39.2137,53.952-61.7136,97.07-72.4282,60.1786-15,91.0746-31.7151,108.1359-94.7148,2.9974-11.3569,4.6127-23.1426,6.6875-34.7146-3.69-2.3571-11.0673-9.2134-17.7535-29.1429-7.1489-21.8563,15.6788-45.6426,26.285-55.7134,8.3,11.7857,26.5148,38.7849,15.2175,59.1432-9.2241,16.7134-17.0628,22.9289-21.4439,25.286-.6911,12.2128-.4615,24.4286-2.5363,36.4277-11.7588,67.2855-48.65,88.7146-110.9036,106.0717-4.8426,1.5-9.6836,3-14.5262,4.7143,39.6589-10.7146,83.0046-10.9282,110.4437,4.0707,16.37,9.0012,29.7421,22.5,40.1184,38.7864,5.0725,1.7149,13.6039,6.8578,25.3622,20.5718,15.2175,17.786,2.9977,47.7849-2.9975,60.6429-12.22-7.9286-39.6572-27.2144-37.1209-49.9284,2.0752-18.8583,7.1474-27.2143,10.375-30.8575A107.152,107.152,0,0,0,718.59,533.9569c-37.3525-16.5-102.6033-11.9993-144.3358,12.2141-47.0362,27.0009-42.1953,78.2152-21.4441,113.1432ZM346.9126,403.6709c-3.4589,15.8577-9.4537,52.5006,12.4513,69.4292,20.7512,16.2861,32.74,18.2146,37.5821,17.9995,2.9977-3.6432,7.84-13.9277,5.0726-39.2137-2.7658-26.1435-38.9658-42.001-55.106-48.215Zm80.0069,241.7155c12.6813-10.9295,41.2726-37.0714,34.5864-62.786-6.4562-24.6423-14.9876-32.7864-18.9076-35.3569-4.841,1.2845-15.4472,6.8562-29.2823,28.714-14.5249,22.714,4.6126,55.2849,13.6035,69.4289ZM323.8564,584.7436c17.0612,4.07,56.027,11.7855,75.3962-7.7151,18.6761-18.4282,21.2124-29.3565,21.4424-34.0708-3.92-2.7857-14.7561-7.9286-41.7324-6.6441-28.5912,1.0726-47.4973,33.8571-55.1061,48.43Zm-141.801-36.0008c9.454-10.9283,31.819-35.1432,56.0287-31.2863,23.0575,3.6432,31.1262,9.8572,33.8937,13.0717-1.1522,3.8569-5.7636,12.6429-24.9012,24.8571-20.29,12.8566-51.6472-.4286-65.0212-6.6426ZM350.8327,336.8143c-13.6036,6-43.8085,21-45.191,43.9277-1.1538,21.6429,3.6887,30.2155,6.225,33.4286,4.3811-.2137,14.5262-2.3571,31.8186-17.1423,17.9835-15.4288,10.8362-46.7137,7.1474-60.214ZM208.1108,384.6c1.8436,16.2848,7.6087,52.9277,33.8936,63.2137,24.9008,9.6435,37.121,8.3575,41.7321,6.8578,1.6137-4.2857,2.9974-15.6441-7.6087-38.7866C265.06,391.4565,225.4032,386.3136,208.1108,384.6ZM385.879,245.1c-11.7587,11.9994-37.8137,40.2863-28.59,65.3572,8.761,24,17.7535,31.5,22.1333,33.8572,4.6127-1.9286,14.5262-8.3575,26.2849-31.0714,12.4514-23.7861-9.6835-54.8575-19.8285-68.1429Zm102.1421,71.3576c-2.0751,13.9277-8.07,45.4277-31.126,53.5714-21.6738,7.7136-32.05,6.2139-35.97,4.7142-1.3821-3.6432-2.3047-13.5,7.61-33.2146,10.1451-20.572,44.5-24,59.486-25.0711Zm86.0019,78.2138c5.304,13.0718,16.3716,43.2858.4614,60.6429-15.2176,16.5-25.1311,19.7143-29.2827,20.3566-2.9974-2.7857-8.761-10.928-10.3746-32.5709-1.6136-22.714,26.5149-40.9286,39.1959-48.4286ZM803.21,482.7427c-15.4487-7.7138-51.4172-24-75.1662-9.6421-22.8261,13.7139-28.36,23.7848-29.7435,28.2854,2.9974,3.6432,11.99,11.1432,38.7359,16.0712,27.8989,5.1429,54.8749-22.2851,66.1738-34.7145ZM677.0878,403.6713c-16.14,6.214-52.3383,22.0714-55.1061,48.2148-2.7659,25.286,2.0751,35.5706,5.0725,39.2137,4.8426.2152,16.8312-1.7134,37.5838-17.9994,21.9038-16.9286,15.9087-53.5714,12.45-69.4292ZM597.08,645.3866c8.9925-14.144,28.1285-46.7149,13.604-69.4289-13.8351-21.8578-24.4413-27.43-29.2826-28.7141-3.92,2.5705-12.4511,10.7146-18.9074,35.3568-6.6862,25.7146,21.905,51.8566,34.586,62.7861Zm103.0649-60.6425c-7.6088-14.5729-26.516-47.3575-55.106-48.43-26.9776-1.2846-37.8137,3.8583-41.7337,6.644.2315,4.7143,2.7675,15.6426,21.4439,34.0709,19.3672,19.5007,58.3334,11.7855,75.3958,7.7153Zm141.8-36c-9.4536-10.9283-31.8185-35.1433-56.0286-31.2864-23.056,3.6431-31.1259,9.8571-33.8937,13.0717,1.1541,3.8569,5.7652,12.6429,24.9027,24.8572,20.29,12.8566,51.6472-.4285,65.02-6.6424ZM673.1679,336.8147c-3.6885,13.5-10.8362,44.7851,7.1472,60.214,17.294,14.7852,27.439,16.9286,31.8189,17.1424,2.5363-3.2131,7.3789-11.7857,6.2264-33.4286-1.3837-22.9274-31.5886-37.9275-45.1925-43.9278ZM815.8915,384.601c-17.294,1.7134-56.9512,6.8562-68.0189,31.2848-10.6062,23.1426-9.2222,34.5009-7.6085,38.7866,4.611,1.5,16.8309,2.7857,41.7337-6.8577,26.2849-10.2859,32.0486-46.9288,33.8938-63.2137ZM638.1222,245.1c-10.1451,13.2854-32.28,44.3568-19.8288,68.1429,11.7584,22.714,21.6735,29.1429,26.2849,31.0715,4.38-2.3571,13.3724-9.8571,22.135-33.8571,9.2225-25.0708-16.8328-53.3578-28.5911-65.3572ZM535.98,316.4577c14.9873,1.0712,49.3424,4.4992,59.4871,25.0712,9.9135,19.7143,8.9925,29.5715,7.6087,33.2146-3.92,1.5-14.2963,2.9993-35.9685-4.7143-23.0575-8.1438-29.0526-39.6438-31.1274-53.5715Z" transform="translate(-182.0553 -233.3147)"/><path class="b" d="M313.4586,789.4846l0-109.7239h45.4818q15.968,0,23.3062,8.6961a29.8286,29.8286,0,0,1,7.3382,19.7841q0,19.9367-14.8375,24.2833,6.1264,1.3515,10.8048,8.0189,4.6769,6.6746,4.6784,18.3629,0,12.5907-6.2906,20.9845-7.2569,9.5956-25,9.5941Zm12.0965-62.9563H358.94q18.7075,0,18.7091-17.8368,0-17.8354-18.709-17.8368H325.5551Zm0,51.8654H358.94q19.3548,0,19.3549-19.787,0-8.994-4.8395-14.9885t-14.5153-5.996H325.555Z" transform="translate(-182.0553 -233.3147)"/><path class="b" d="M399.1011,789.4847l43.3851-109.7238h11.9353l41.4506,109.7239H481.679l-10.1605-30.5787H424.4229l-10.6454,30.5786Zm29.6765-41.67h38.5471L448.2921,696.7Z" transform="translate(-182.0553 -233.3147)"/><path class="b" d="M504.7444,715.4375V705.544q0-15.1367,8.3859-20.9118,8.3851-5.7678,21.4517-5.7693t42.42,3.5982v8.9925l-40.3234-1.5h-2.5816q-8.2256,0-12.8219,2.7-4.5971,2.6943-4.5971,12.89v9.8935q0,9.2948,3.9529,11.992,3.95,2.6943,12.4982,2.6972h22.9043q25.1575,0,25.1591,25.783v10.1929q0,15.1411-10.4827,20.3857-8.7111,4.1983-22.0975,4.1969-5.6432,0-19.9177-1.3515-14.2745-1.3472-20.4025-2.3978v-8.9925q17.7388,1.6523,40.32,1.648,20.6448,0,20.6464-13.4888V755.91q0-7.0452-2.9021-10.87-2.9037-3.8191-10.3232-3.822H533.453q-18.3862,0-24.0317-8.2427Q504.7421,726.0824,504.7444,715.4375Z" transform="translate(-182.0553 -233.3147)"/><path class="b" d="M601.3543,789.485l0-109.7239h11.9338l0,109.7239Z" transform="translate(-182.0553 -233.3147)"/><path class="b" d="M710.5409,691.1545q-29.0276-1.4954-39.4321-1.5-10.4045,0-16.1306,3.6737-5.7276,3.6752-8.4656,13.3405-2.7442,9.6654-2.7427,27.9541,0,44.6691,27.4169,44.6691l39.3539-1.0492v8.8443a229.9547,229.9547,0,0,1-39.3539,3.2958q-39.3523,0-39.3507-56.0594,0-28.4773,8.3062-42.12,8.303-13.637,31.0447-13.64a234.2225,234.2225,0,0,1,39.3539,3.7465Z" transform="translate(-182.0553 -233.3147)"/></svg>